Nobel-Condensed_Bold.ufo
<glyph name="exclam" format="1">
  <advance width="233"/>
  <unicode hex="0021"/>
  <outline>
    <contour>
      <point x="183" y="431" type="line"/>
      <point x="156" y="177" type="line"/>
      <point x="77" y="177" type="line"/>
      <point x="50" y="431" type="line"/>
      <point x="50" y="730" type="line"/>
      <point x="183" y="730" type="line"/>
    </contour>
    <contour>
      <point x="183" y="0" type="line"/>
      <point x="50" y="0" type="line"/>
      <point x="50" y="141" type="line"/>
      <point x="183" y="141" type="line"/>
    </contour>
  </outline>
</glyph>
<glyph name="quotedbl" format="1">
  <advance width="388"/>
  <unicode hex="0022"/>
  <outline>
    <contour>
      <point x="348" y="613" type="line"/>
      <point x="321" y="481" type="line"/>
      <point x="251" y="481" type="line"/>
      <point x="224" y="613" type="line"/>
      <point x="224" y="730" type="line"/>
      <point x="348" y="730" type="line"/>
    </contour>
    <contour>
      <point x="164" y="613" type="line"/>
      <point x="137" y="481" type="line"/>
      <point x="67" y="481" type="line"/>
      <point x="40" y="613" type="line"/>
      <point x="40" y="730" type="line"/>
      <point x="164" y="730" type="line"/>
    </contour>
  </outline>
</glyph>
<glyph name="numbersign" format="1">
  <advance width="636"/>
  <unicode hex="0023"/>
  <outline>
    <contour>
      <point x="586" y="187" type="line"/>
      <point x="469" y="187" type="line"/>
      <point x="453" y="0" type="line"/>
      <point x="341" y="0" type="line"/>
      <point x="357" y="187" type="line"/>
      <point x="247" y="187" type="line"/>
      <point x="231" y="0" type="line"/>
      <point x="119" y="0" type="line"/>
      <point x="135" y="187" type="line"/>
      <point x="50" y="187" type="line"/>
      <point x="50" y="285" type="line"/>
      <point x="144" y="285" type="line"/>
      <point x="158" y="448" type="line"/>
      <point x="50" y="448" type="line"/>
      <point x="50" y="546" type="line"/>
      <point x="167" y="546" type="line"/>
      <point x="183" y="730" type="line"/>
      <point x="295" y="730" type="line"/>
      <point x="279" y="546" type="line"/>
      <point x="389" y="546" type="line"/>
      <point x="405" y="730" type="line"/>
      <point x="517" y="730" type="line"/>
      <point x="501" y="546" type="line"/>
      <point x="586" y="546" type="line"/>
      <point x="586" y="448" type="line"/>
      <point x="492" y="448" type="line"/>
      <point x="478" y="285" type="line"/>
      <point x="586" y="285" type="line"/>
    </contour>
    <contour>
      <point x="380" y="448" type="line"/>
      <point x="270" y="448" type="line"/>
      <point x="256" y="285" type="line"/>
      <point x="366" y="285" type="line"/>
    </contour>
  </outline>
</glyph>
<glyph name="dollar" format="1">
  <advance width="421"/>
  <unicode hex="0024"/>
  <outline>
    <contour>
      <point x="394" y="189" type="curve" smooth="yes"/>
      <point x="394" y="89"/>
      <point x="329" y="17"/>
      <point x="237" y="1" type="curve"/>
      <point x="237" y="-71" type="line"/>
      <point x="169" y="-71" type="line"/>
      <point x="169" y="0" type="line"/>
      <point x="103" y="11"/>
      <point x="48" y="55"/>
      <point x="16" y="113" type="curve"/>
      <point x="120" y="197" type="line"/>
      <point x="142" y="147"/>
      <point x="175" y="121"/>
      <point x="200" y="121" type="curve" smooth="yes"/>
      <point x="231" y="121"/>
      <point x="249" y="142"/>
      <point x="249" y="184" type="curve" smooth="yes"/>
      <point x="249" y="239"/>
      <point x="184" y="289"/>
      <point x="125" y="360" type="curve" smooth="yes"/>
      <point x="77" y="419"/>
      <point x="33" y="475"/>
      <point x="33" y="553" type="curve" smooth="yes"/>
      <point x="33" y="636"/>
      <point x="82" y="711"/>
      <point x="179" y="728" type="curve"/>
      <point x="179" y="779" type="line"/>
      <point x="247" y="779" type="line"/>
      <point x="247" y="730" type="line"/>
      <point x="314" y="722"/>
      <point x="358" y="680"/>
      <point x="388" y="628" type="curve"/>
      <point x="292" y="548" type="line"/>
      <point x="272" y="583"/>
      <point x="252" y="609"/>
      <point x="222" y="609" type="curve" smooth="yes"/>
      <point x="187" y="609"/>
      <point x="175" y="588"/>
      <point x="175" y="558" type="curve" smooth="yes"/>
      <point x="175" y="508"/>
      <point x="221" y="469"/>
      <point x="270" y="414" type="curve" smooth="yes"/>
      <point x="329" y="348"/>
      <point x="394" y="284"/>
    </contour>
  </outline>
</glyph>
<glyph name="ampersand" format="1">
  <advance width="505"/>
  <unicode hex="0026"/>
  <outline>
    <contour>
      <point x="485" y="0" type="line"/>
      <point x="349" y="0" type="line"/>
      <point x="322" y="49" type="line"/>
      <point x="285" y="12"/>
      <point x="240" y="-12"/>
      <point x="191" y="-12" type="curve" smooth="yes"/>
      <point x="93" y="-12"/>
      <point x="22" y="63"/>
      <point x="22" y="173" type="curve" smooth="yes"/>
      <point x="22" y="281"/>
      <point x="79" y="339"/>
      <point x="133" y="392" type="curve"/>
      <point x="93" y="462"/>
      <point x="62" y="524"/>
      <point x="62" y="596" type="curve" smooth="yes"/>
      <point x="62" y="674"/>
      <point x="121" y="742"/>
      <point x="199" y="742" type="curve" smooth="yes"/>
      <point x="291" y="742"/>
      <point x="341" y="660"/>
      <point x="341" y="581" type="curve" smooth="yes"/>
      <point x="341" y="497"/>
      <point x="303" y="443"/>
      <point x="262" y="394" type="curve"/>
      <point x="346" y="245" type="line"/>
      <point x="365" y="278"/>
      <point x="382" y="313"/>
      <point x="398" y="350" type="curve"/>
      <point x="463" y="238" type="line"/>
      <point x="448" y="206"/>
      <point x="427" y="174"/>
      <point x="405" y="141" type="curve"/>
    </contour>
    <contour>
      <point x="238" y="586" type="curve" smooth="yes"/>
      <point x="238" y="620"/>
      <point x="229" y="648"/>
      <point x="203" y="648" type="curve" smooth="yes"/>
      <point x="178" y="648"/>
      <point x="170" y="625"/>
      <point x="170" y="594" type="curve" smooth="yes"/>
      <point x="170" y="559"/>
      <point x="186" y="519"/>
      <point x="209" y="478" type="curve"/>
      <point x="225" y="506"/>
      <point x="238" y="545"/>
    </contour>
    <contour>
      <point x="270" y="142" type="curve"/>
      <point x="185" y="294" type="line"/>
      <point x="166" y="263"/>
      <point x="154" y="227"/>
      <point x="154" y="182" type="curve" smooth="yes"/>
      <point x="154" y="136"/>
      <point x="175" y="111"/>
      <point x="208" y="111" type="curve" smooth="yes"/>
      <point x="228" y="111"/>
      <point x="251" y="121"/>
    </contour>
  </outline>
</glyph>
<glyph name="quotesingle" format="1">
  <advance width="204"/>
  <unicode hex="0027"/>
  <outline>
    <contour>
      <point x="164" y="613" type="line"/>
      <point x="137" y="481" type="line"/>
      <point x="67" y="481" type="line"/>
      <point x="40" y="613" type="line"/>
      <point x="40" y="730" type="line"/>
      <point x="164" y="730" type="line"/>
    </contour>
  </outline>
</glyph>
<glyph name="parenleft" format="1">
  <advance width="280"/>
  <unicode hex="0028"/>
  <outline>
    <contour>
      <point x="255" y="-179" type="line"/>
      <point x="98" y="-53"/>
      <point x="30" y="102"/>
      <point x="30" y="281" type="curve" smooth="yes"/>
      <point x="30" y="460"/>
      <point x="98" y="619"/>
      <point x="255" y="742" type="curve"/>
      <point x="255" y="643" type="line"/>
      <point x="184" y="522"/>
      <point x="159" y="411"/>
      <point x="159" y="281" type="curve" smooth="yes"/>
      <point x="159" y="151"/>
      <point x="184" y="44"/>
      <point x="255" y="-85" type="curve"/>
    </contour>
  </outline>
</glyph>
<glyph name="parenright" format="1">
  <advance width="280"/>
  <unicode hex="0029"/>
  <outline>
    <contour>
      <point x="250" y="279" type="curve" smooth="yes"/>
      <point x="250" y="100"/>
      <point x="182" y="-59"/>
      <point x="25" y="-182" type="curve"/>
      <point x="25" y="-83" type="line"/>
      <point x="96" y="38"/>
      <point x="121" y="149"/>
      <point x="121" y="279" type="curve" smooth="yes"/>
      <point x="121" y="409"/>
      <point x="96" y="516"/>
      <point x="25" y="645" type="curve"/>
      <point x="25" y="739" type="line"/>
      <point x="182" y="613"/>
      <point x="250" y="458"/>
    </contour>
  </outline>
</glyph>
<glyph name="asterisk" format="1">
  <advance width="406"/>
  <unicode hex="002A"/>
  <outline>
    <contour>
      <point x="391" y="572" type="line"/>
      <point x="285" y="516" type="line"/>
      <point x="337" y="411" type="line"/>
      <point x="287" y="373" type="line"/>
      <point x="202" y="457" type="line"/>
      <point x="118" y="374" type="line"/>
      <point x="67" y="410" type="line"/>
      <point x="120" y="517" type="line"/>
      <point x="15" y="571" type="line"/>
      <point x="34" y="631" type="line"/>
      <point x="152" y="613" type="line"/>
      <point x="171" y="730" type="line"/>
      <point x="233" y="730" type="line"/>
      <point x="251" y="613" type="line"/>
      <point x="369" y="631" type="line"/>
    </contour>
  </outline>
</glyph>
<glyph name="plus" format="1">
  <advance width="452"/>
  <unicode hex="002B"/>
  <outline>
    <contour>
      <point x="422" y="273" type="line"/>
      <point x="286" y="273" type="line"/>
      <point x="286" y="125" type="line"/>
      <point x="166" y="125" type="line"/>
      <point x="166" y="273" type="line"/>
      <point x="30" y="273" type="line"/>
      <point x="30" y="389" type="line"/>
      <point x="166" y="389" type="line"/>
      <point x="166" y="537" type="line"/>
      <point x="286" y="537" type="line"/>
      <point x="286" y="389" type="line"/>
      <point x="422" y="389" type="line"/>
    </contour>
  </outline>
</glyph>
<glyph name="comma" format="1">
  <advance width="213"/>
  <unicode hex="002C"/>
  <outline>
    <contour>
      <point x="173" y="40" type="line" smooth="yes"/>
      <point x="173" y="-40"/>
      <point x="133" y="-102"/>
      <point x="101" y="-128" type="curve"/>
      <point x="9" y="-128" type="line"/>
      <point x="28" y="-99"/>
      <point x="40" y="-52"/>
      <point x="40" y="10" type="curve" smooth="yes"/>
      <point x="40" y="141" type="line"/>
      <point x="173" y="141" type="line"/>
    </contour>
  </outline>
</glyph>
<glyph name="hyphen" format="1">
  <advance width="245"/>
  <unicode hex="002D"/>
  <unicode hex="2010"/>
  <unicode hex="2011"/>
  <outline>
    <contour>
      <point x="210" y="183" type="line"/>
      <point x="35" y="183" type="line"/>
      <point x="35" y="293" type="line"/>
      <point x="210" y="293" type="line"/>
    </contour>
  </outline>
</glyph>
<glyph name="period" format="1">
  <advance width="213"/>
  <unicode hex="002E"/>
  <outline>
    <contour>
      <point x="173" y="0" type="line"/>
      <point x="40" y="0" type="line"/>
      <point x="40" y="141" type="line"/>
      <point x="173" y="141" type="line"/>
    </contour>
  </outline>
</glyph>
<glyph name="slash" format="1">
  <advance width="266"/>
  <unicode hex="002F"/>
  <outline>
    <contour>
      <point x="246" y="730" type="line"/>
      <point x="133" y="0" type="line"/>
      <point x="20" y="0" type="line"/>
      <point x="133" y="730" type="line"/>
    </contour>
  </outline>
</glyph>
<glyph name="zero" format="1">
  <advance width="459"/>
  <unicode hex="0030"/>
  <outline>
    <contour>
      <point x="434" y="365" type="curve" smooth="yes"/>
      <point x="434" y="200"/>
      <point x="383" y="-12"/>
      <point x="229" y="-12" type="curve" smooth="yes"/>
      <point x="75" y="-12"/>
      <point x="25" y="200"/>
      <point x="25" y="365" type="curve" smooth="yes"/>
      <point x="25" y="530"/>
      <point x="75" y="742"/>
      <point x="229" y="742" type="curve" smooth="yes"/>
      <point x="383" y="742"/>
      <point x="434" y="530"/>
    </contour>
    <contour>
      <point x="294" y="365" type="curve" smooth="yes"/>
      <point x="294" y="501"/>
      <point x="284" y="614"/>
      <point x="229" y="614" type="curve" smooth="yes"/>
      <point x="174" y="614"/>
      <point x="165" y="501"/>
      <point x="165" y="365" type="curve" smooth="yes"/>
      <point x="165" y="229"/>
      <point x="174" y="116"/>
      <point x="229" y="116" type="curve" smooth="yes"/>
      <point x="284" y="116"/>
      <point x="294" y="229"/>
    </contour>
  </outline>
</glyph>
<glyph name="one" format="1">
  <advance width="297"/>
  <unicode hex="0031"/>
  <outline>
    <contour>
      <point x="247" y="0" type="line"/>
      <point x="107" y="0" type="line"/>
      <point x="107" y="529" type="line"/>
      <point x="86" y="511"/>
      <point x="45" y="491"/>
      <point x="22" y="487" type="curve"/>
      <point x="22" y="612" type="line"/>
      <point x="71" y="623"/>
      <point x="125" y="668"/>
      <point x="139" y="730" type="curve"/>
      <point x="247" y="730" type="line"/>
    </contour>
  </outline>
</glyph>
<glyph name="two" format="1">
  <advance width="437"/>
  <unicode hex="0032"/>
  <outline>
    <contour>
      <point x="399" y="572" type="curve" smooth="yes"/>
      <point x="399" y="516"/>
      <point x="378" y="443"/>
      <point x="336" y="355" type="curve" smooth="yes"/>
      <point x="226" y="125" type="line"/>
      <point x="394" y="125" type="line"/>
      <point x="394" y="0" type="line"/>
      <point x="17" y="0" type="line"/>
      <point x="206" y="390" type="line" smooth="yes"/>
      <point x="226" y="431"/>
      <point x="254" y="499"/>
      <point x="254" y="565" type="curve" smooth="yes"/>
      <point x="254" y="591"/>
      <point x="242" y="623"/>
      <point x="215" y="623" type="curve" smooth="yes"/>
      <point x="184" y="623"/>
      <point x="164" y="589"/>
      <point x="164" y="542" type="curve" smooth="yes"/>
      <point x="164" y="516" type="line"/>
      <point x="39" y="516" type="line"/>
      <point x="39" y="560" type="line" smooth="yes"/>
      <point x="39" y="674"/>
      <point x="121" y="745"/>
      <point x="224" y="745" type="curve" smooth="yes"/>
      <point x="333" y="745"/>
      <point x="399" y="663"/>
    </contour>
  </outline>
</glyph>
<glyph name="three" format="1">
  <advance width="435"/>
  <unicode hex="0033"/>
  <outline>
    <contour>
      <point x="399" y="225" type="curve" smooth="yes"/>
      <point x="399" y="92"/>
      <point x="315" y="-12"/>
      <point x="191" y="-12" type="curve" smooth="yes"/>
      <point x="108" y="-12"/>
      <point x="50" y="36"/>
      <point x="14" y="106" type="curve"/>
      <point x="115" y="190" type="line"/>
      <point x="133" y="148"/>
      <point x="154" y="121"/>
      <point x="192" y="121" type="curve" smooth="yes"/>
      <point x="241" y="121"/>
      <point x="254" y="161"/>
      <point x="254" y="226" type="curve" smooth="yes"/>
      <point x="254" y="282"/>
      <point x="235" y="332"/>
      <point x="173" y="332" type="curve" smooth="yes"/>
      <point x="142" y="332" type="line"/>
      <point x="142" y="446" type="line"/>
      <point x="161" y="446" type="line" smooth="yes"/>
      <point x="224" y="446"/>
      <point x="247" y="479"/>
      <point x="247" y="544" type="curve" smooth="yes"/>
      <point x="247" y="579"/>
      <point x="239" y="621"/>
      <point x="199" y="621" type="curve" smooth="yes"/>
      <point x="158" y="621"/>
      <point x="148" y="569"/>
      <point x="148" y="529" type="curve"/>
      <point x="27" y="575" type="line"/>
      <point x="43" y="678"/>
      <point x="96" y="742"/>
      <point x="204" y="742" type="curve" smooth="yes"/>
      <point x="314" y="742"/>
      <point x="387" y="660"/>
      <point x="387" y="557" type="curve" smooth="yes"/>
      <point x="387" y="488"/>
      <point x="359" y="428"/>
      <point x="301" y="402" type="curve"/>
      <point x="360" y="379"/>
      <point x="399" y="302"/>
    </contour>
  </outline>
</glyph>
<glyph name="four" format="1">
  <advance width="421"/>
  <unicode hex="0034"/>
  <outline>
    <contour>
      <point x="405" y="155" type="line"/>
      <point x="349" y="155" type="line"/>
      <point x="349" y="0" type="line"/>
      <point x="220" y="0" type="line"/>
      <point x="220" y="155" type="line"/>
      <point x="15" y="155" type="line"/>
      <point x="15" y="258" type="line"/>
      <point x="245" y="730" type="line"/>
      <point x="349" y="730" type="line"/>
      <point x="349" y="262" type="line"/>
      <point x="405" y="262" type="line"/>
    </contour>
    <contour>
      <point x="220" y="262" type="line"/>
      <point x="220" y="474" type="line"/>
      <point x="125" y="262" type="line"/>
    </contour>
  </outline>
</glyph>
<glyph name="five" format="1">
  <advance width="434"/>
  <unicode hex="0035"/>
  <outline>
    <contour>
      <point x="408" y="263" type="curve" smooth="yes"/>
      <point x="408" y="115"/>
      <point x="335" y="-12"/>
      <point x="202" y="-12" type="curve" smooth="yes"/>
      <point x="126" y="-12"/>
      <point x="72" y="21"/>
      <point x="31" y="85" type="curve"/>
      <point x="127" y="168" type="line"/>
      <point x="136" y="135"/>
      <point x="161" y="106"/>
      <point x="191" y="106" type="curve" smooth="yes"/>
      <point x="245" y="106"/>
      <point x="263" y="168"/>
      <point x="263" y="254" type="curve" smooth="yes"/>
      <point x="263" y="309"/>
      <point x="259" y="389"/>
      <point x="212" y="389" type="curve" smooth="yes"/>
      <point x="177" y="389"/>
      <point x="165" y="343"/>
      <point x="162" y="291" type="curve"/>
      <point x="58" y="321" type="line"/>
      <point x="69" y="730" type="line"/>
      <point x="377" y="730" type="line"/>
      <point x="377" y="610" type="line"/>
      <point x="177" y="610" type="line"/>
      <point x="173" y="470" type="line"/>
      <point x="195" y="496"/>
      <point x="222" y="508"/>
      <point x="258" y="508" type="curve" smooth="yes"/>
      <point x="372" y="508"/>
      <point x="408" y="374"/>
    </contour>
  </outline>
</glyph>
<glyph name="six" format="1">
  <advance width="426"/>
  <unicode hex="0036"/>
  <outline>
    <contour>
      <point x="401" y="256" type="curve" smooth="yes"/>
      <point x="401" y="112"/>
      <point x="338" y="-12"/>
      <point x="211" y="-12" type="curve" smooth="yes"/>
      <point x="88" y="-12"/>
      <point x="25" y="105"/>
      <point x="25" y="239" type="curve" smooth="yes"/>
      <point x="25" y="354"/>
      <point x="77" y="527"/>
      <point x="184" y="730" type="curve"/>
      <point x="328" y="730" type="line"/>
      <point x="296" y="675"/>
      <point x="233" y="540"/>
      <point x="208" y="473" type="curve"/>
      <point x="219" y="481"/>
      <point x="238" y="485"/>
      <point x="253" y="485" type="curve" smooth="yes"/>
      <point x="359" y="485"/>
      <point x="401" y="372"/>
    </contour>
    <contour>
      <point x="263" y="242" type="curve" smooth="yes"/>
      <point x="263" y="313"/>
      <point x="256" y="373"/>
      <point x="212" y="373" type="curve" smooth="yes"/>
      <point x="173" y="373"/>
      <point x="163" y="303"/>
      <point x="163" y="238" type="curve" smooth="yes"/>
      <point x="163" y="163"/>
      <point x="174" y="103"/>
      <point x="211" y="103" type="curve" smooth="yes"/>
      <point x="250" y="103"/>
      <point x="263" y="159"/>
    </contour>
  </outline>
</glyph>
<glyph name="seven" format="1">
  <advance width="417"/>
  <unicode hex="0037"/>
  <outline>
    <contour>
      <point x="405" y="730" type="line"/>
      <point x="187" y="0" type="line"/>
      <point x="46" y="0" type="line"/>
      <point x="235" y="610" type="line"/>
      <point x="46" y="610" type="line"/>
      <point x="46" y="730" type="line"/>
    </contour>
  </outline>
</glyph>
<glyph name="eight" format="1">
  <advance width="442"/>
  <unicode hex="0038"/>
  <outline>
    <contour>
      <point x="418" y="213" type="curve" smooth="yes"/>
      <point x="418" y="98"/>
      <point x="336" y="-12"/>
      <point x="221" y="-12" type="curve" smooth="yes"/>
      <point x="106" y="-12"/>
      <point x="24" y="98"/>
      <point x="24" y="213" type="curve" smooth="yes"/>
      <point x="24" y="288"/>
      <point x="46" y="345"/>
      <point x="101" y="396" type="curve"/>
      <point x="70" y="430"/>
      <point x="45" y="474"/>
      <point x="45" y="547" type="curve" smooth="yes"/>
      <point x="45" y="645"/>
      <point x="99" y="742"/>
      <point x="221" y="742" type="curve" smooth="yes"/>
      <point x="342" y="742"/>
      <point x="397" y="647"/>
      <point x="397" y="547" type="curve" smooth="yes"/>
      <point x="397" y="474"/>
      <point x="372" y="430"/>
      <point x="341" y="396" type="curve"/>
      <point x="396" y="345"/>
      <point x="418" y="288"/>
    </contour>
    <contour>
      <point x="270" y="538" type="curve" smooth="yes"/>
      <point x="270" y="576"/>
      <point x="259" y="629"/>
      <point x="221" y="629" type="curve" smooth="yes"/>
      <point x="182" y="629"/>
      <point x="172" y="577"/>
      <point x="172" y="538" type="curve" smooth="yes"/>
      <point x="172" y="496"/>
      <point x="179" y="440"/>
      <point x="221" y="440" type="curve" smooth="yes"/>
      <point x="263" y="440"/>
      <point x="270" y="496"/>
    </contour>
    <contour>
      <point x="284" y="218" type="curve" smooth="yes"/>
      <point x="284" y="268"/>
      <point x="271" y="336"/>
      <point x="221" y="336" type="curve" smooth="yes"/>
      <point x="171" y="336"/>
      <point x="158" y="268"/>
      <point x="158" y="218" type="curve" smooth="yes"/>
      <point x="158" y="167"/>
      <point x="174" y="108"/>
      <point x="221" y="108" type="curve" smooth="yes"/>
      <point x="268" y="108"/>
      <point x="284" y="167"/>
    </contour>
  </outline>
</glyph>
<glyph name="nine" format="1">
  <advance width="426"/>
  <unicode hex="0039"/>
  <outline>
    <contour>
      <point x="394" y="491" type="curve" smooth="yes"/>
      <point x="394" y="376"/>
      <point x="349" y="182"/>
      <point x="236" y="-12" type="curve"/>
      <point x="121" y="53" type="line"/>
      <point x="153" y="108"/>
      <point x="198" y="190"/>
      <point x="223" y="257" type="curve"/>
      <point x="212" y="249"/>
      <point x="193" y="245"/>
      <point x="178" y="245" type="curve" smooth="yes"/>
      <point x="72" y="245"/>
      <point x="18" y="358"/>
      <point x="18" y="474" type="curve" smooth="yes"/>
      <point x="18" y="618"/>
      <point x="81" y="742"/>
      <point x="208" y="742" type="curve" smooth="yes"/>
      <point x="331" y="742"/>
      <point x="394" y="625"/>
    </contour>
    <contour>
      <point x="263" y="492" type="curve" smooth="yes"/>
      <point x="263" y="567"/>
      <point x="250" y="627"/>
      <point x="209" y="627" type="curve" smooth="yes"/>
      <point x="166" y="627"/>
      <point x="155" y="571"/>
      <point x="155" y="488" type="curve" smooth="yes"/>
      <point x="155" y="417"/>
      <point x="163" y="351"/>
      <point x="211" y="351" type="curve" smooth="yes"/>
      <point x="254" y="351"/>
      <point x="263" y="427"/>
    </contour>
  </outline>
</glyph>
<glyph name="colon" format="1">
  <advance width="213"/>
  <unicode hex="003A"/>
  <outline>
    <contour>
      <point x="173" y="275" type="line"/>
      <point x="40" y="275" type="line"/>
      <point x="40" y="416" type="line"/>
      <point x="173" y="416" type="line"/>
    </contour>
    <contour>
      <point x="173" y="0" type="line"/>
      <point x="40" y="0" type="line"/>
      <point x="40" y="141" type="line"/>
      <point x="173" y="141" type="line"/>
    </contour>
  </outline>
</glyph>
<glyph name="less" format="1">
  <advance width="300"/>
  <unicode hex="003C"/>
  <outline>
    <contour>
      <point x="263" y="87" type="line"/>
      <point x="28" y="267" type="line"/>
      <point x="28" y="382" type="line"/>
      <point x="263" y="560" type="line"/>
      <point x="263" y="423" type="line"/>
      <point x="123" y="325" type="line"/>
      <point x="263" y="226" type="line"/>
    </contour>
  </outline>
</glyph>
<glyph name="equal" format="1">
  <advance width="442"/>
  <unicode hex="003D"/>
  <outline>
    <contour>
      <point x="397" y="388" type="line"/>
      <point x="45" y="388" type="line"/>
      <point x="45" y="508" type="line"/>
      <point x="397" y="508" type="line"/>
    </contour>
    <contour>
      <point x="397" y="158" type="line"/>
      <point x="45" y="158" type="line"/>
      <point x="45" y="278" type="line"/>
      <point x="397" y="278" type="line"/>
    </contour>
  </outline>
</glyph>
<glyph name="greater" format="1">
  <advance width="300"/>
  <unicode hex="003E"/>
  <outline>
    <contour>
      <point x="272" y="268" type="line"/>
      <point x="37" y="90" type="line"/>
      <point x="37" y="227" type="line"/>
      <point x="177" y="325" type="line"/>
      <point x="37" y="424" type="line"/>
      <point x="37" y="563" type="line"/>
      <point x="272" y="383" type="line"/>
    </contour>
  </outline>
</glyph>
<glyph name="question" format="1">
  <advance width="351"/>
  <unicode hex="003F"/>
  <outline>
    <contour>
      <point x="332" y="579" type="curve" smooth="yes"/>
      <point x="332" y="488"/>
      <point x="291" y="447"/>
      <point x="259" y="383" type="curve" smooth="yes"/>
      <point x="238" y="342"/>
      <point x="222" y="293"/>
      <point x="222" y="216" type="curve" smooth="yes"/>
      <point x="222" y="184" type="line"/>
      <point x="109" y="184" type="line"/>
      <point x="109" y="224" type="line" smooth="yes"/>
      <point x="109" y="323"/>
      <point x="127" y="383"/>
      <point x="147" y="427" type="curve" smooth="yes"/>
      <point x="173" y="484"/>
      <point x="203" y="515"/>
      <point x="203" y="572" type="curve" smooth="yes"/>
      <point x="203" y="593"/>
      <point x="192" y="623"/>
      <point x="161" y="623" type="curve" smooth="yes"/>
      <point x="127" y="623"/>
      <point x="109" y="574"/>
      <point x="112" y="538" type="curve"/>
      <point x="8" y="599" type="line"/>
      <point x="19" y="683"/>
      <point x="84" y="742"/>
      <point x="167" y="742" type="curve" smooth="yes"/>
      <point x="276" y="742"/>
      <point x="332" y="657"/>
    </contour>
    <contour>
      <point x="222" y="0" type="line"/>
      <point x="109" y="0" type="line"/>
      <point x="109" y="146" type="line"/>
      <point x="222" y="146" type="line"/>
    </contour>
  </outline>
</glyph>
<glyph name="at" format="1">
  <advance width="844"/>
  <unicode hex="0040"/>
  <outline>
    <contour>
      <point x="799" y="395" type="curve" smooth="yes"/>
      <point x="799" y="225"/>
      <point x="676" y="151"/>
      <point x="616" y="151" type="curve" smooth="yes"/>
      <point x="567" y="151"/>
      <point x="528" y="170"/>
      <point x="510" y="196" type="curve"/>
      <point x="471" y="168"/>
      <point x="430" y="151"/>
      <point x="380" y="151" type="curve" smooth="yes"/>
      <point x="277" y="151"/>
      <point x="224" y="214"/>
      <point x="224" y="291" type="curve" smooth="yes"/>
      <point x="224" y="389"/>
      <point x="322" y="443"/>
      <point x="450" y="443" type="curve" smooth="yes"/>
      <point x="507" y="443" type="line"/>
      <point x="507" y="493"/>
      <point x="485" y="506"/>
      <point x="429" y="506" type="curve" smooth="yes"/>
      <point x="377" y="506"/>
      <point x="335" y="499"/>
      <point x="299" y="483" type="curve"/>
      <point x="268" y="564" type="line"/>
      <point x="307" y="587"/>
      <point x="372" y="596"/>
      <point x="418" y="596" type="curve" smooth="yes"/>
      <point x="534" y="596"/>
      <point x="610" y="562"/>
      <point x="610" y="472" type="curve" smooth="yes"/>
      <point x="610" y="242" type="line" smooth="yes"/>
      <point x="610" y="225"/>
      <point x="621" y="219"/>
      <point x="634" y="219" type="curve" smooth="yes"/>
      <point x="677" y="219"/>
      <point x="739" y="274"/>
      <point x="739" y="389" type="curve" smooth="yes"/>
      <point x="739" y="551"/>
      <point x="617" y="678"/>
      <point x="423" y="678" type="curve" smooth="yes"/>
      <point x="249" y="678"/>
      <point x="108" y="542"/>
      <point x="108" y="361" type="curve" smooth="yes"/>
      <point x="108" y="181"/>
      <point x="249" y="46"/>
      <point x="423" y="46" type="curve" smooth="yes"/>
      <point x="460" y="46"/>
      <point x="503" y="51"/>
      <point x="550" y="73" type="curve"/>
      <point x="574" y="21" type="line"/>
      <point x="519" y="-4"/>
      <point x="468" y="-12"/>
      <point x="422" y="-12" type="curve" smooth="yes"/>
      <point x="214" y="-12"/>
      <point x="45" y="157"/>
      <point x="45" y="365" type="curve" smooth="yes"/>
      <point x="45" y="573"/>
      <point x="214" y="742"/>
      <point x="422" y="742" type="curve" smooth="yes"/>
      <point x="650" y="742"/>
      <point x="799" y="587"/>
    </contour>
    <contour>
      <point x="505" y="278" type="curve"/>
      <point x="505" y="356" type="line"/>
      <point x="453" y="356" type="line" smooth="yes"/>
      <point x="373" y="356"/>
      <point x="331" y="332"/>
      <point x="331" y="292" type="curve" smooth="yes"/>
      <point x="331" y="262"/>
      <point x="351" y="244"/>
      <point x="406" y="244" type="curve" smooth="yes"/>
      <point x="448" y="244"/>
      <point x="477" y="254"/>
    </contour>
  </outline>
</glyph>
<glyph name="A" format="1">
  <advance width="511"/>
  <unicode hex="0041"/>
  <outline>
    <contour>
      <point x="481" y="0" type="line"/>
      <point x="340" y="0" type="line"/>
      <point x="318" y="116" type="line"/>
      <point x="181" y="116" type="line"/>
      <point x="159" y="0" type="line"/>
      <point x="20" y="0" type="line"/>
      <point x="206" y="730" type="line"/>
      <point x="299" y="730" type="line"/>
    </contour>
    <contour>
      <point x="298" y="219" type="line"/>
      <point x="257" y="435" type="line" smooth="yes"/>
      <point x="254" y="453"/>
      <point x="250" y="480"/>
      <point x="250" y="480" type="curve"/>
      <point x="250" y="480"/>
      <point x="246" y="453"/>
      <point x="243" y="435" type="curve" smooth="yes"/>
      <point x="201" y="219" type="line"/>
    </contour>
  </outline>
</glyph>
<glyph name="B" format="1">
  <advance width="449"/>
  <unicode hex="0042"/>
  <outline>
    <contour>
      <point x="423" y="205" type="curve" smooth="yes"/>
      <point x="423" y="42"/>
      <point x="292" y="0"/>
      <point x="202" y="0" type="curve" smooth="yes"/>
      <point x="50" y="0" type="line"/>
      <point x="50" y="730" type="line"/>
      <point x="192" y="730" type="line" smooth="yes"/>
      <point x="295" y="730"/>
      <point x="408" y="680"/>
      <point x="408" y="535" type="curve" smooth="yes"/>
      <point x="408" y="459"/>
      <point x="358" y="397"/>
      <point x="299" y="378" type="curve"/>
      <point x="364" y="360"/>
      <point x="423" y="310"/>
    </contour>
    <contour>
      <point x="273" y="525" type="curve" smooth="yes"/>
      <point x="273" y="582"/>
      <point x="239" y="616"/>
      <point x="185" y="616" type="curve"/>
      <point x="185" y="422" type="line"/>
      <point x="239" y="422"/>
      <point x="273" y="464"/>
    </contour>
    <contour>
      <point x="288" y="214" type="curve" smooth="yes"/>
      <point x="288" y="287"/>
      <point x="234" y="313"/>
      <point x="185" y="313" type="curve"/>
      <point x="185" y="114" type="line"/>
      <point x="249" y="114"/>
      <point x="288" y="148"/>
    </contour>
  </outline>
</glyph>
<glyph name="C" format="1">
  <advance width="443"/>
  <unicode hex="0043"/>
  <outline>
    <contour>
      <point x="415" y="693" type="curve"/>
      <point x="355" y="570" type="line"/>
      <point x="338" y="604"/>
      <point x="317" y="619"/>
      <point x="280" y="619" type="curve" smooth="yes"/>
      <point x="203" y="619"/>
      <point x="175" y="472"/>
      <point x="175" y="365" type="curve" smooth="yes"/>
      <point x="175" y="258"/>
      <point x="203" y="109"/>
      <point x="280" y="109" type="curve" smooth="yes"/>
      <point x="309" y="109"/>
      <point x="339" y="128"/>
      <point x="354" y="156" type="curve"/>
      <point x="413" y="41" type="line"/>
      <point x="385" y="9"/>
      <point x="336" y="-12"/>
      <point x="280" y="-12" type="curve" smooth="yes"/>
      <point x="108" y="-12"/>
      <point x="30" y="191"/>
      <point x="30" y="365" type="curve" smooth="yes"/>
      <point x="30" y="539"/>
      <point x="108" y="742"/>
      <point x="280" y="742" type="curve" smooth="yes"/>
      <point x="342" y="742"/>
      <point x="381" y="725"/>
    </contour>
  </outline>
</glyph>
<glyph name="D" format="1">
  <advance width="488"/>
  <unicode hex="0044"/>
  <outline>
    <contour>
      <point x="458" y="365" type="curve" smooth="yes"/>
      <point x="458" y="191"/>
      <point x="379" y="0"/>
      <point x="207" y="0" type="curve" smooth="yes"/>
      <point x="50" y="0" type="line"/>
      <point x="50" y="730" type="line"/>
      <point x="207" y="730" type="line" smooth="yes"/>
      <point x="379" y="730"/>
      <point x="458" y="539"/>
    </contour>
    <contour>
      <point x="313" y="365" type="curve" smooth="yes"/>
      <point x="313" y="472"/>
      <point x="292" y="607"/>
      <point x="207" y="607" type="curve" smooth="yes"/>
      <point x="190" y="607" type="line"/>
      <point x="190" y="123" type="line"/>
      <point x="207" y="123" type="line" smooth="yes"/>
      <point x="292" y="123"/>
      <point x="313" y="258"/>
    </contour>
  </outline>
</glyph>
<glyph name="E" format="1">
  <advance width="419"/>
  <unicode hex="0045"/>
  <outline>
    <contour>
      <point x="371" y="0" type="line"/>
      <point x="50" y="0" type="line"/>
      <point x="50" y="730" type="line"/>
      <point x="368" y="730" type="line"/>
      <point x="368" y="611" type="line"/>
      <point x="190" y="611" type="line"/>
      <point x="190" y="428" type="line"/>
      <point x="355" y="428" type="line"/>
      <point x="355" y="309" type="line"/>
      <point x="190" y="309" type="line"/>
      <point x="190" y="119" type="line"/>
      <point x="371" y="119" type="line"/>
    </contour>
  </outline>
</glyph>
<glyph name="F" format="1">
  <advance width="396"/>
  <unicode hex="0046"/>
  <outline>
    <contour>
      <point x="363" y="611" type="line"/>
      <point x="190" y="611" type="line"/>
      <point x="190" y="428" type="line"/>
      <point x="350" y="428" type="line"/>
      <point x="350" y="309" type="line"/>
      <point x="190" y="309" type="line"/>
      <point x="190" y="0" type="line"/>
      <point x="50" y="0" type="line"/>
      <point x="50" y="730" type="line"/>
      <point x="363" y="730" type="line"/>
    </contour>
  </outline>
</glyph>
<glyph name="G" format="1">
  <advance width="495"/>
  <unicode hex="0047"/>
  <outline>
    <contour>
      <point x="451" y="97" type="line"/>
      <point x="412" y="32"/>
      <point x="350" y="-12"/>
      <point x="270" y="-12" type="curve" smooth="yes"/>
      <point x="98" y="-12"/>
      <point x="30" y="191"/>
      <point x="30" y="365" type="curve" smooth="yes"/>
      <point x="30" y="539"/>
      <point x="98" y="742"/>
      <point x="270" y="742" type="curve" smooth="yes"/>
      <point x="340" y="742"/>
      <point x="393" y="708"/>
      <point x="431" y="656" type="curve"/>
      <point x="347" y="539" type="line"/>
      <point x="334" y="580"/>
      <point x="307" y="619"/>
      <point x="270" y="619" type="curve" smooth="yes"/>
      <point x="193" y="619"/>
      <point x="175" y="472"/>
      <point x="175" y="365" type="curve" smooth="yes"/>
      <point x="175" y="258"/>
      <point x="193" y="109"/>
      <point x="270" y="109" type="curve" smooth="yes"/>
      <point x="289" y="109"/>
      <point x="307" y="115"/>
      <point x="319" y="130" type="curve"/>
      <point x="319" y="306" type="line"/>
      <point x="231" y="306" type="line"/>
      <point x="231" y="416" type="line"/>
      <point x="451" y="416" type="line"/>
    </contour>
  </outline>
</glyph>
<glyph name="H" format="1">
  <advance width="504"/>
  <unicode hex="0048"/>
  <outline>
    <contour>
      <point x="454" y="0" type="line"/>
      <point x="314" y="0" type="line"/>
      <point x="314" y="309" type="line"/>
      <point x="190" y="309" type="line"/>
      <point x="190" y="0" type="line"/>
      <point x="50" y="0" type="line"/>
      <point x="50" y="730" type="line"/>
      <point x="190" y="730" type="line"/>
      <point x="190" y="428" type="line"/>
      <point x="314" y="428" type="line"/>
      <point x="314" y="730" type="line"/>
      <point x="454" y="730" type="line"/>
    </contour>
  </outline>
</glyph>
<glyph name="I" format="1">
  <advance width="240"/>
  <unicode hex="0049"/>
  <outline>
    <contour>
      <point x="190" y="0" type="line"/>
      <point x="50" y="0" type="line"/>
      <point x="50" y="730" type="line"/>
      <point x="190" y="730" type="line"/>
    </contour>
  </outline>
</glyph>
<glyph name="J" format="1">
  <advance width="302"/>
  <unicode hex="004A"/>
  <outline>
    <contour>
      <point x="254" y="195" type="line" smooth="yes"/>
      <point x="254" y="61"/>
      <point x="201" y="0"/>
      <point x="96" y="0" type="curve" smooth="yes"/>
      <point x="30" y="0" type="line"/>
      <point x="30" y="119" type="line"/>
      <point x="53" y="119" type="line" smooth="yes"/>
      <point x="99" y="119"/>
      <point x="114" y="144"/>
      <point x="114" y="203" type="curve" smooth="yes"/>
      <point x="114" y="730" type="line"/>
      <point x="254" y="730" type="line"/>
    </contour>
  </outline>
</glyph>
<glyph name="K" format="1">
  <advance width="486"/>
  <unicode hex="004B"/>
  <outline>
    <contour>
      <point x="470" y="0" type="line"/>
      <point x="320" y="0" type="line"/>
      <point x="203" y="320" type="line"/>
      <point x="190" y="296" type="line"/>
      <point x="190" y="0" type="line"/>
      <point x="50" y="0" type="line"/>
      <point x="50" y="730" type="line"/>
      <point x="190" y="730" type="line"/>
      <point x="190" y="484" type="line"/>
      <point x="323" y="730" type="line"/>
      <point x="469" y="730" type="line"/>
      <point x="296" y="437" type="line"/>
    </contour>
  </outline>
</glyph>
<glyph name="L" format="1">
  <advance width="386"/>
  <unicode hex="004C"/>
  <outline>
    <contour>
      <point x="363" y="0" type="line"/>
      <point x="50" y="0" type="line"/>
      <point x="50" y="730" type="line"/>
      <point x="190" y="730" type="line"/>
      <point x="190" y="119" type="line"/>
      <point x="363" y="119" type="line"/>
    </contour>
  </outline>
</glyph>
<glyph name="M" format="1">
  <advance width="636"/>
  <unicode hex="004D"/>
  <outline>
    <contour>
      <point x="586" y="0" type="line"/>
      <point x="449" y="0" type="line"/>
      <point x="449" y="384" type="line" smooth="yes"/>
      <point x="449" y="400"/>
      <point x="451" y="433"/>
      <point x="451" y="433" type="curve"/>
      <point x="451" y="433"/>
      <point x="440" y="401"/>
      <point x="434" y="385" type="curve" smooth="yes"/>
      <point x="354" y="177" type="line"/>
      <point x="279" y="177" type="line"/>
      <point x="201" y="387" type="line" smooth="yes"/>
      <point x="196" y="401"/>
      <point x="185" y="433"/>
      <point x="185" y="433" type="curve"/>
      <point x="185" y="433"/>
      <point x="187" y="403"/>
      <point x="187" y="386" type="curve" smooth="yes"/>
      <point x="187" y="0" type="line"/>
      <point x="50" y="0" type="line"/>
      <point x="50" y="730" type="line"/>
      <point x="180" y="730" type="line"/>
      <point x="306" y="428" type="line" smooth="yes"/>
      <point x="311" y="415"/>
      <point x="321" y="383"/>
      <point x="321" y="383" type="curve"/>
      <point x="321" y="383"/>
      <point x="331" y="414"/>
      <point x="337" y="429" type="curve" smooth="yes"/>
      <point x="461" y="730" type="line"/>
      <point x="586" y="730" type="line"/>
    </contour>
  </outline>
</glyph>
<glyph name="N" format="1">
  <advance width="516"/>
  <unicode hex="004E"/>
  <outline>
    <contour>
      <point x="466" y="0" type="line"/>
      <point x="351" y="0" type="line"/>
      <point x="204" y="335" type="line" smooth="yes"/>
      <point x="198" y="350"/>
      <point x="188" y="375"/>
      <point x="188" y="375" type="curve"/>
      <point x="188" y="375"/>
      <point x="190" y="352"/>
      <point x="190" y="333" type="curve" smooth="yes"/>
      <point x="190" y="0" type="line"/>
      <point x="50" y="0" type="line"/>
      <point x="50" y="730" type="line"/>
      <point x="160" y="730" type="line"/>
      <point x="315" y="368" type="line" smooth="yes"/>
      <point x="319" y="358"/>
      <point x="329" y="331"/>
      <point x="329" y="331" type="curve"/>
      <point x="329" y="331"/>
      <point x="326" y="357"/>
      <point x="326" y="371" type="curve" smooth="yes"/>
      <point x="326" y="730" type="line"/>
      <point x="466" y="730" type="line"/>
    </contour>
  </outline>
</glyph>
<glyph name="O" format="1">
  <advance width="541"/>
  <unicode hex="004F"/>
  <outline>
    <contour>
      <point x="511" y="365" type="curve" smooth="yes"/>
      <point x="511" y="191"/>
      <point x="442" y="-12"/>
      <point x="270" y="-12" type="curve" smooth="yes"/>
      <point x="98" y="-12"/>
      <point x="30" y="191"/>
      <point x="30" y="365" type="curve" smooth="yes"/>
      <point x="30" y="539"/>
      <point x="98" y="742"/>
      <point x="270" y="742" type="curve" smooth="yes"/>
      <point x="442" y="742"/>
      <point x="511" y="539"/>
    </contour>
    <contour>
      <point x="366" y="365" type="curve" smooth="yes"/>
      <point x="366" y="472"/>
      <point x="347" y="619"/>
      <point x="270" y="619" type="curve" smooth="yes"/>
      <point x="193" y="619"/>
      <point x="175" y="472"/>
      <point x="175" y="365" type="curve" smooth="yes"/>
      <point x="175" y="258"/>
      <point x="193" y="111"/>
      <point x="270" y="111" type="curve" smooth="yes"/>
      <point x="347" y="111"/>
      <point x="366" y="258"/>
    </contour>
  </outline>
</glyph>
<glyph name="P" format="1">
  <advance width="433"/>
  <unicode hex="0050"/>
  <outline>
    <contour>
      <point x="413" y="502" type="curve" smooth="yes"/>
      <point x="413" y="338"/>
      <point x="313" y="263"/>
      <point x="190" y="263" type="curve"/>
      <point x="190" y="0" type="line"/>
      <point x="50" y="0" type="line"/>
      <point x="50" y="730" type="line"/>
      <point x="192" y="730" type="line" smooth="yes"/>
      <point x="295" y="730"/>
      <point x="413" y="673"/>
    </contour>
    <contour>
      <point x="268" y="502" type="curve" smooth="yes"/>
      <point x="268" y="575"/>
      <point x="246" y="612"/>
      <point x="190" y="612" type="curve"/>
      <point x="190" y="384" type="line"/>
      <point x="246" y="384"/>
      <point x="268" y="429"/>
    </contour>
  </outline>
</glyph>
<glyph name="Q" format="1">
  <advance width="541"/>
  <unicode hex="0051"/>
  <outline>
    <contour>
      <point x="511" y="35" type="curve"/>
      <point x="435" y="-49" type="line"/>
      <point x="416" y="-39"/>
      <point x="391" y="-16"/>
      <point x="366" y="13" type="curve"/>
      <point x="338" y="-3"/>
      <point x="306" y="-12"/>
      <point x="270" y="-12" type="curve" smooth="yes"/>
      <point x="98" y="-12"/>
      <point x="30" y="191"/>
      <point x="30" y="365" type="curve" smooth="yes"/>
      <point x="30" y="539"/>
      <point x="98" y="742"/>
      <point x="270" y="742" type="curve" smooth="yes"/>
      <point x="442" y="742"/>
      <point x="511" y="539"/>
      <point x="511" y="365" type="curve" smooth="yes"/>
      <point x="511" y="266"/>
      <point x="489" y="158"/>
      <point x="438" y="83" type="curve"/>
      <point x="464" y="62"/>
      <point x="490" y="45"/>
    </contour>
    <contour>
      <point x="366" y="365" type="curve" smooth="yes"/>
      <point x="366" y="472"/>
      <point x="347" y="619"/>
      <point x="270" y="619" type="curve" smooth="yes"/>
      <point x="193" y="619"/>
      <point x="175" y="472"/>
      <point x="175" y="365" type="curve" smooth="yes"/>
      <point x="175" y="258"/>
      <point x="193" y="111"/>
      <point x="270" y="111" type="curve" smooth="yes"/>
      <point x="277" y="111"/>
      <point x="284" y="112"/>
      <point x="290" y="115" type="curve"/>
      <point x="270" y="146"/>
      <point x="254" y="176"/>
      <point x="247" y="196" type="curve"/>
      <point x="296" y="244" type="line"/>
      <point x="305" y="222"/>
      <point x="320" y="199"/>
      <point x="339" y="176" type="curve"/>
      <point x="360" y="228"/>
      <point x="366" y="303"/>
    </contour>
  </outline>
</glyph>
<glyph name="R" format="1">
  <advance width="461"/>
  <unicode hex="0052"/>
  <outline>
    <contour>
      <point x="437" y="0" type="line"/>
      <point x="295" y="0" type="line"/>
      <point x="190" y="311" type="line"/>
      <point x="190" y="0" type="line"/>
      <point x="50" y="0" type="line"/>
      <point x="50" y="730" type="line"/>
      <point x="192" y="730" type="line" smooth="yes"/>
      <point x="295" y="730"/>
      <point x="413" y="676"/>
      <point x="413" y="505" type="curve" smooth="yes"/>
      <point x="413" y="401"/>
      <point x="371" y="346"/>
      <point x="316" y="321" type="curve"/>
    </contour>
    <contour>
      <point x="268" y="505" type="curve" smooth="yes"/>
      <point x="268" y="578"/>
      <point x="246" y="612"/>
      <point x="190" y="612" type="curve"/>
      <point x="190" y="392" type="line"/>
      <point x="246" y="392"/>
      <point x="268" y="432"/>
    </contour>
  </outline>
</glyph>
<glyph name="S" format="1">
  <advance width="440"/>
  <unicode hex="0053"/>
  <outline>
    <contour>
      <point x="404" y="179" type="curve" smooth="yes"/>
      <point x="404" y="65"/>
      <point x="320" y="-12"/>
      <point x="208" y="-12" type="curve" smooth="yes"/>
      <point x="129" y="-12"/>
      <point x="63" y="37"/>
      <point x="26" y="103" type="curve"/>
      <point x="130" y="187" type="line"/>
      <point x="152" y="137"/>
      <point x="185" y="111"/>
      <point x="210" y="111" type="curve" smooth="yes"/>
      <point x="241" y="111"/>
      <point x="259" y="132"/>
      <point x="259" y="174" type="curve" smooth="yes"/>
      <point x="259" y="229"/>
      <point x="194" y="289"/>
      <point x="135" y="360" type="curve" smooth="yes"/>
      <point x="87" y="419"/>
      <point x="43" y="485"/>
      <point x="43" y="563" type="curve" smooth="yes"/>
      <point x="43" y="657"/>
      <point x="107" y="742"/>
      <point x="232" y="742" type="curve" smooth="yes"/>
      <point x="313" y="742"/>
      <point x="364" y="696"/>
      <point x="398" y="638" type="curve"/>
      <point x="302" y="558" type="line"/>
      <point x="282" y="593"/>
      <point x="262" y="619"/>
      <point x="232" y="619" type="curve" smooth="yes"/>
      <point x="197" y="619"/>
      <point x="185" y="598"/>
      <point x="185" y="568" type="curve" smooth="yes"/>
      <point x="185" y="518"/>
      <point x="231" y="469"/>
      <point x="280" y="414" type="curve" smooth="yes"/>
      <point x="339" y="348"/>
      <point x="404" y="274"/>
    </contour>
  </outline>
</glyph>
<glyph name="T" format="1">
  <advance width="386"/>
  <unicode hex="0054"/>
  <outline>
    <contour>
      <point x="366" y="611" type="line"/>
      <point x="263" y="611" type="line"/>
      <point x="263" y="0" type="line"/>
      <point x="123" y="0" type="line"/>
      <point x="123" y="611" type="line"/>
      <point x="20" y="611" type="line"/>
      <point x="20" y="730" type="line"/>
      <point x="366" y="730" type="line"/>
    </contour>
  </outline>
</glyph>
<glyph name="U" format="1">
  <advance width="494"/>
  <unicode hex="0055"/>
  <outline>
    <contour>
      <point x="449" y="234" type="line" smooth="yes"/>
      <point x="449" y="95"/>
      <point x="385" y="-12"/>
      <point x="247" y="-12" type="curve" smooth="yes"/>
      <point x="109" y="-12"/>
      <point x="45" y="95"/>
      <point x="45" y="234" type="curve" smooth="yes"/>
      <point x="45" y="730" type="line"/>
      <point x="185" y="730" type="line"/>
      <point x="185" y="234" type="line" smooth="yes"/>
      <point x="185" y="148"/>
      <point x="202" y="114"/>
      <point x="247" y="114" type="curve" smooth="yes"/>
      <point x="292" y="114"/>
      <point x="309" y="148"/>
      <point x="309" y="234" type="curve" smooth="yes"/>
      <point x="309" y="730" type="line"/>
      <point x="449" y="730" type="line"/>
    </contour>
  </outline>
</glyph>
<glyph name="V" format="1">
  <advance width="481"/>
  <unicode hex="0056"/>
  <outline>
    <contour>
      <point x="461" y="730" type="line"/>
      <point x="304" y="0" type="line"/>
      <point x="177" y="0" type="line"/>
      <point x="20" y="730" type="line"/>
      <point x="158" y="730" type="line"/>
      <point x="233" y="320" type="line" smooth="yes"/>
      <point x="236" y="301"/>
      <point x="240" y="270"/>
      <point x="240" y="270" type="curve"/>
      <point x="240" y="270"/>
      <point x="243" y="299"/>
      <point x="247" y="320" type="curve" smooth="yes"/>
      <point x="325" y="730" type="line"/>
    </contour>
  </outline>
</glyph>
<glyph name="W" format="1">
  <advance width="782"/>
  <unicode hex="0057"/>
  <outline>
    <contour>
      <point x="762" y="730" type="line"/>
      <point x="605" y="0" type="line"/>
      <point x="481" y="0" type="line"/>
      <point x="481" y="0"/>
      <point x="396" y="396"/>
      <point x="396" y="398" type="curve"/>
      <point x="393" y="415"/>
      <point x="389" y="449"/>
      <point x="389" y="449" type="curve"/>
      <point x="389" y="449"/>
      <point x="386" y="416"/>
      <point x="382" y="398" type="curve" smooth="yes"/>
      <point x="297" y="0" type="line"/>
      <point x="177" y="0" type="line"/>
      <point x="20" y="730" type="line"/>
      <point x="158" y="730" type="line"/>
      <point x="233" y="323" type="line" smooth="yes"/>
      <point x="236" y="306"/>
      <point x="240" y="270"/>
      <point x="240" y="270" type="curve"/>
      <point x="240" y="270"/>
      <point x="243" y="303"/>
      <point x="247" y="323" type="curve" smooth="yes"/>
      <point x="332" y="730" type="line"/>
      <point x="440" y="730" type="line"/>
      <point x="533" y="324" type="line" smooth="yes"/>
      <point x="538" y="304"/>
      <point x="541" y="270"/>
      <point x="541" y="270" type="curve"/>
      <point x="541" y="270"/>
      <point x="544" y="305"/>
      <point x="548" y="324" type="curve" smooth="yes"/>
      <point x="626" y="730" type="line"/>
    </contour>
  </outline>
</glyph>
<glyph name="X" format="1">
  <advance width="511"/>
  <unicode hex="0058"/>
  <outline>
    <contour>
      <point x="491" y="0" type="line"/>
      <point x="346" y="0" type="line"/>
      <point x="270" y="192" type="line" smooth="yes"/>
      <point x="264" y="208"/>
      <point x="256" y="236"/>
      <point x="256" y="236" type="curve"/>
      <point x="256" y="236"/>
      <point x="249" y="209"/>
      <point x="243" y="193" type="curve" smooth="yes"/>
      <point x="165" y="0" type="line"/>
      <point x="20" y="0" type="line"/>
      <point x="186" y="386" type="line"/>
      <point x="40" y="730" type="line"/>
      <point x="185" y="730" type="line"/>
      <point x="243" y="573" type="line" smooth="yes"/>
      <point x="248" y="559"/>
      <point x="255" y="532"/>
      <point x="255" y="532" type="curve"/>
      <point x="255" y="532"/>
      <point x="261" y="558"/>
      <point x="266" y="572" type="curve" smooth="yes"/>
      <point x="326" y="730" type="line"/>
      <point x="471" y="730" type="line"/>
      <point x="325" y="386" type="line"/>
    </contour>
  </outline>
</glyph>
<glyph name="Y" format="1">
  <advance width="471"/>
  <unicode hex="0059"/>
  <outline>
    <contour>
      <point x="461" y="730" type="line"/>
      <point x="305" y="321" type="line"/>
      <point x="305" y="0" type="line"/>
      <point x="165" y="0" type="line"/>
      <point x="165" y="323" type="line"/>
      <point x="10" y="730" type="line"/>
      <point x="157" y="730" type="line"/>
      <point x="226" y="513" type="line" smooth="yes"/>
      <point x="231" y="498"/>
      <point x="236" y="471"/>
      <point x="236" y="471" type="curve"/>
      <point x="236" y="471"/>
      <point x="242" y="498"/>
      <point x="247" y="514" type="curve" smooth="yes"/>
      <point x="316" y="730" type="line"/>
    </contour>
  </outline>
</glyph>
<glyph name="Z" format="1">
  <advance width="468"/>
  <unicode hex="005A"/>
  <outline>
    <contour>
      <point x="457" y="730" type="line"/>
      <point x="214" y="137" type="line" smooth="yes"/>
      <point x="210" y="127"/>
      <point x="204" y="118"/>
      <point x="204" y="118" type="curve"/>
      <point x="204" y="118"/>
      <point x="214" y="119"/>
      <point x="223" y="119" type="curve" smooth="yes"/>
      <point x="433" y="119" type="line"/>
      <point x="433" y="0" type="line"/>
      <point x="13" y="0" type="line"/>
      <point x="259" y="592" type="line" smooth="yes"/>
      <point x="263" y="601"/>
      <point x="270" y="612"/>
      <point x="270" y="612" type="curve"/>
      <point x="270" y="612"/>
      <point x="258" y="611"/>
      <point x="246" y="611" type="curve" smooth="yes"/>
      <point x="51" y="611" type="line"/>
      <point x="51" y="730" type="line"/>
    </contour>
  </outline>
</glyph>
<glyph name="bracketleft" format="1">
  <advance width="315"/>
  <unicode hex="005B"/>
  <outline>
    <contour>
      <point x="280" y="-179" type="line"/>
      <point x="50" y="-179" type="line"/>
      <point x="50" y="730" type="line"/>
      <point x="280" y="730" type="line"/>
      <point x="280" y="606" type="line"/>
      <point x="185" y="606" type="line"/>
      <point x="185" y="-55" type="line"/>
      <point x="280" y="-55" type="line"/>
    </contour>
  </outline>
</glyph>
<glyph name="backslash" format="1">
  <advance width="266"/>
  <unicode hex="005C"/>
  <outline>
    <contour>
      <point x="246" y="0" type="line"/>
      <point x="133" y="0" type="line"/>
      <point x="20" y="730" type="line"/>
      <point x="133" y="730" type="line"/>
    </contour>
  </outline>
</glyph>
<glyph name="bracketright" format="1">
  <advance width="315"/>
  <unicode hex="005D"/>
  <outline>
    <contour>
      <point x="265" y="-179" type="line"/>
      <point x="35" y="-179" type="line"/>
      <point x="35" y="-55" type="line"/>
      <point x="130" y="-55" type="line"/>
      <point x="130" y="606" type="line"/>
      <point x="35" y="606" type="line"/>
      <point x="35" y="730" type="line"/>
      <point x="265" y="730" type="line"/>
    </contour>
  </outline>
</glyph>
<glyph name="asciicircum" format="1">
  <advance width="503"/>
  <unicode hex="005E"/>
  <outline>
    <contour>
      <point x="473" y="389" type="line"/>
      <point x="328" y="389" type="line"/>
      <point x="249" y="595" type="line"/>
      <point x="171" y="389" type="line"/>
      <point x="30" y="389" type="line"/>
      <point x="183" y="730" type="line"/>
      <point x="318" y="730" type="line"/>
    </contour>
  </outline>
</glyph>
<glyph name="grave" format="1">
  <advance width="400"/>
  <unicode hex="0060"/>
  <outline>
    <contour>
      <point x="283" y="475" type="line"/>
      <point x="187" y="475" type="line"/>
      <point x="86" y="642" type="line"/>
      <point x="206" y="642" type="line"/>
    </contour>
  </outline>
</glyph>
<glyph name="a" format="1">
  <advance width="369"/>
  <unicode hex="0061"/>
  <outline>
    <contour>
      <point x="336" y="0" type="line"/>
      <point x="211" y="0" type="line"/>
      <point x="211" y="32" type="line"/>
      <point x="197" y="7"/>
      <point x="160" y="-12"/>
      <point x="128" y="-12" type="curve" smooth="yes"/>
      <point x="67" y="-12"/>
      <point x="17" y="33"/>
      <point x="17" y="125" type="curve" smooth="yes"/>
      <point x="17" y="225"/>
      <point x="128" y="276"/>
      <point x="211" y="276" type="curve"/>
      <point x="211" y="311"/>
      <point x="211" y="341"/>
      <point x="174" y="341" type="curve" smooth="yes"/>
      <point x="138" y="341"/>
      <point x="105" y="330"/>
      <point x="84" y="315" type="curve"/>
      <point x="51" y="388" type="line"/>
      <point x="81" y="415"/>
      <point x="137" y="428"/>
      <point x="193" y="428" type="curve" smooth="yes"/>
      <point x="307" y="428"/>
      <point x="336" y="358"/>
      <point x="336" y="315" type="curve" smooth="yes"/>
    </contour>
    <contour>
      <point x="211" y="103" type="curve"/>
      <point x="211" y="203" type="line"/>
      <point x="179" y="203"/>
      <point x="139" y="184"/>
      <point x="139" y="130" type="curve" smooth="yes"/>
      <point x="139" y="105"/>
      <point x="152" y="88"/>
      <point x="179" y="88" type="curve" smooth="yes"/>
      <point x="191" y="88"/>
      <point x="203" y="93"/>
    </contour>
  </outline>
</glyph>
<glyph name="c" format="1">
  <advance width="345"/>
  <unicode hex="0063"/>
  <outline>
    <contour>
      <point x="328" y="78" type="line"/>
      <point x="300" y="25"/>
      <point x="253" y="-12"/>
      <point x="189" y="-12" type="curve" smooth="yes"/>
      <point x="79" y="-12"/>
      <point x="20" y="97"/>
      <point x="20" y="208" type="curve" smooth="yes"/>
      <point x="20" y="319"/>
      <point x="79" y="428"/>
      <point x="189" y="428" type="curve" smooth="yes"/>
      <point x="254" y="428"/>
      <point x="300" y="391"/>
      <point x="328" y="337" type="curve"/>
      <point x="243" y="268" type="line"/>
      <point x="233" y="305"/>
      <point x="217" y="320"/>
      <point x="189" y="320" type="curve" smooth="yes"/>
      <point x="159" y="320"/>
      <point x="145" y="284"/>
      <point x="145" y="208" type="curve" smooth="yes"/>
      <point x="145" y="132"/>
      <point x="159" y="96"/>
      <point x="189" y="96" type="curve" smooth="yes"/>
      <point x="216" y="96"/>
      <point x="235" y="118"/>
      <point x="243" y="154" type="curve"/>
    </contour>
  </outline>
</glyph>
<glyph name="e" format="1">
  <advance width="362"/>
  <unicode hex="0065"/>
  <outline>
    <contour>
      <point x="337" y="203" type="curve" smooth="yes"/>
      <point x="337" y="194"/>
      <point x="337" y="186"/>
      <point x="336" y="177" type="curve"/>
      <point x="141" y="177" type="line"/>
      <point x="143" y="115"/>
      <point x="168" y="90"/>
      <point x="195" y="90" type="curve" smooth="yes"/>
      <point x="225" y="90"/>
      <point x="246" y="109"/>
      <point x="262" y="136" type="curve"/>
      <point x="333" y="72" type="line"/>
      <point x="301" y="19"/>
      <point x="256" y="-12"/>
      <point x="189" y="-12" type="curve" smooth="yes"/>
      <point x="79" y="-12"/>
      <point x="20" y="88"/>
      <point x="20" y="208" type="curve" smooth="yes"/>
      <point x="20" y="319"/>
      <point x="74" y="428"/>
      <point x="184" y="428" type="curve" smooth="yes"/>
      <point x="302" y="428"/>
      <point x="337" y="314"/>
    </contour>
    <contour>
      <point x="226" y="250" type="line"/>
      <point x="226" y="292"/>
      <point x="216" y="335"/>
      <point x="184" y="335" type="curve" smooth="yes"/>
      <point x="152" y="335"/>
      <point x="143" y="292"/>
      <point x="141" y="250" type="curve"/>
    </contour>
  </outline>
</glyph>
<glyph name="f" format="1">
  <advance width="253"/>
  <unicode hex="0066"/>
  <outline>
    <contour>
      <point x="237" y="311" type="line"/>
      <point x="188" y="311" type="line"/>
      <point x="188" y="0" type="line"/>
      <point x="63" y="0" type="line"/>
      <point x="63" y="311" type="line"/>
      <point x="14" y="311" type="line"/>
      <point x="14" y="416" type="line"/>
      <point x="63" y="416" type="line"/>
      <point x="63" y="602" type="line" smooth="yes"/>
      <point x="63" y="676"/>
      <point x="94" y="730"/>
      <point x="194" y="730" type="curve" smooth="yes"/>
      <point x="211" y="730"/>
      <point x="227" y="728"/>
      <point x="236" y="725" type="curve"/>
      <point x="236" y="618" type="line"/>
      <point x="230" y="620"/>
      <point x="225" y="620"/>
      <point x="218" y="620" type="curve" smooth="yes"/>
      <point x="193" y="620"/>
      <point x="188" y="599"/>
      <point x="188" y="573" type="curve" smooth="yes"/>
      <point x="188" y="416" type="line"/>
      <point x="237" y="416" type="line"/>
    </contour>
  </outline>
</glyph>
<glyph name="g" format="1">
  <advance width="377"/>
  <unicode hex="0067"/>
  <outline>
    <contour>
      <point x="342" y="-6" type="line" smooth="yes"/>
      <point x="342" y="-111"/>
      <point x="291" y="-179"/>
      <point x="178" y="-179" type="curve" smooth="yes"/>
      <point x="103" y="-179"/>
      <point x="55" y="-156"/>
      <point x="24" y="-125" type="curve"/>
      <point x="87" y="-47" type="line"/>
      <point x="104" y="-65"/>
      <point x="130" y="-77"/>
      <point x="160" y="-77" type="curve" smooth="yes"/>
      <point x="190" y="-77"/>
      <point x="217" y="-63"/>
      <point x="217" y="-15" type="curve" smooth="yes"/>
      <point x="217" y="32" type="line"/>
      <point x="203" y="7"/>
      <point x="181" y="-12"/>
      <point x="149" y="-12" type="curve" smooth="yes"/>
      <point x="61" y="-12"/>
      <point x="20" y="97"/>
      <point x="20" y="208" type="curve" smooth="yes"/>
      <point x="20" y="319"/>
      <point x="61" y="428"/>
      <point x="149" y="428" type="curve" smooth="yes"/>
      <point x="181" y="428"/>
      <point x="203" y="409"/>
      <point x="217" y="384" type="curve"/>
      <point x="217" y="416" type="line"/>
      <point x="342" y="416" type="line"/>
    </contour>
    <contour>
      <point x="229" y="208" type="curve" smooth="yes"/>
      <point x="229" y="284"/>
      <point x="215" y="320"/>
      <point x="185" y="320" type="curve" smooth="yes"/>
      <point x="155" y="320"/>
      <point x="141" y="284"/>
      <point x="141" y="208" type="curve" smooth="yes"/>
      <point x="141" y="132"/>
      <point x="155" y="96"/>
      <point x="185" y="96" type="curve" smooth="yes"/>
      <point x="215" y="96"/>
      <point x="229" y="132"/>
    </contour>
  </outline>
</glyph>
<glyph name="h" format="1">
  <advance width="377"/>
  <unicode hex="0068"/>
  <outline>
    <contour>
      <point x="347" y="0" type="line"/>
      <point x="222" y="0" type="line"/>
      <point x="222" y="258" type="line" smooth="yes"/>
      <point x="222" y="281"/>
      <point x="217" y="308"/>
      <point x="193" y="308" type="curve" smooth="yes"/>
      <point x="168" y="308"/>
      <point x="160" y="281"/>
      <point x="160" y="258" type="curve" smooth="yes"/>
      <point x="160" y="0" type="line"/>
      <point x="35" y="0" type="line"/>
      <point x="35" y="730" type="line"/>
      <point x="160" y="730" type="line"/>
      <point x="160" y="373" type="line"/>
      <point x="183" y="407"/>
      <point x="214" y="428"/>
      <point x="257" y="428" type="curve" smooth="yes"/>
      <point x="325" y="428"/>
      <point x="347" y="367"/>
      <point x="347" y="320" type="curve" smooth="yes"/>
    </contour>
  </outline>
</glyph>
<glyph name="i" format="1">
  <advance width="195"/>
  <unicode hex="0069"/>
  <outline>
    <contour>
      <point x="160" y="484" type="line"/>
      <point x="35" y="484" type="line"/>
      <point x="35" y="617" type="line"/>
      <point x="160" y="617" type="line"/>
    </contour>
    <contour>
      <point x="160" y="0" type="line"/>
      <point x="35" y="0" type="line"/>
      <point x="35" y="416" type="line"/>
      <point x="160" y="416" type="line"/>
    </contour>
  </outline>
</glyph>
<glyph name="j" format="1">
  <advance width="195"/>
  <unicode hex="006A"/>
  <outline>
    <contour>
      <point x="160" y="484" type="line"/>
      <point x="35" y="484" type="line"/>
      <point x="35" y="617" type="line"/>
      <point x="160" y="617" type="line"/>
    </contour>
    <contour>
      <point x="160" y="-31" type="line" smooth="yes"/>
      <point x="160" y="-105"/>
      <point x="129" y="-179"/>
      <point x="29" y="-179" type="curve" smooth="yes"/>
      <point x="12" y="-179"/>
      <point x="-4" y="-177"/>
      <point x="-13" y="-174" type="curve"/>
      <point x="-13" y="-67" type="line"/>
      <point x="-7" y="-69"/>
      <point x="-2" y="-69"/>
      <point x="5" y="-69" type="curve" smooth="yes"/>
      <point x="30" y="-69"/>
      <point x="35" y="-48"/>
      <point x="35" y="-22" type="curve" smooth="yes"/>
      <point x="35" y="416" type="line"/>
      <point x="160" y="416" type="line"/>
    </contour>
  </outline>
</glyph>
<glyph name="k" format="1">
  <advance width="380"/>
  <unicode hex="006B"/>
  <outline>
    <contour>
      <point x="364" y="0" type="line"/>
      <point x="241" y="0" type="line"/>
      <point x="181" y="163" type="line"/>
      <point x="160" y="130" type="line"/>
      <point x="160" y="0" type="line"/>
      <point x="35" y="0" type="line"/>
      <point x="35" y="730" type="line"/>
      <point x="160" y="730" type="line"/>
      <point x="160" y="290" type="line"/>
      <point x="240" y="416" type="line"/>
      <point x="362" y="416" type="line"/>
      <point x="261" y="261" type="line"/>
    </contour>
  </outline>
</glyph>
<glyph name="m" format="1">
  <advance width="564"/>
  <unicode hex="006D"/>
  <outline>
    <contour>
      <point x="534" y="0" type="line"/>
      <point x="409" y="0" type="line"/>
      <point x="409" y="258" type="line" smooth="yes"/>
      <point x="409" y="281"/>
      <point x="404" y="308"/>
      <point x="380" y="308" type="curve" smooth="yes"/>
      <point x="355" y="308"/>
      <point x="347" y="281"/>
      <point x="347" y="258" type="curve" smooth="yes"/>
      <point x="347" y="0" type="line"/>
      <point x="222" y="0" type="line"/>
      <point x="222" y="258" type="line" smooth="yes"/>
      <point x="222" y="281"/>
      <point x="217" y="308"/>
      <point x="193" y="308" type="curve" smooth="yes"/>
      <point x="168" y="308"/>
      <point x="160" y="281"/>
      <point x="160" y="258" type="curve" smooth="yes"/>
      <point x="160" y="0" type="line"/>
      <point x="35" y="0" type="line"/>
      <point x="35" y="416" type="line"/>
      <point x="160" y="416" type="line"/>
      <point x="160" y="373" type="line"/>
      <point x="183" y="407"/>
      <point x="214" y="428"/>
      <point x="257" y="428" type="curve" smooth="yes"/>
      <point x="303" y="428"/>
      <point x="335" y="398"/>
      <point x="343" y="363" type="curve"/>
      <point x="367" y="404"/>
      <point x="401" y="428"/>
      <point x="444" y="428" type="curve" smooth="yes"/>
      <point x="512" y="428"/>
      <point x="534" y="367"/>
      <point x="534" y="320" type="curve" smooth="yes"/>
    </contour>
  </outline>
</glyph>
<glyph name="o" format="1">
  <advance width="378"/>
  <unicode hex="006F"/>
  <outline>
    <contour>
      <point x="358" y="208" type="curve" smooth="yes"/>
      <point x="358" y="97"/>
      <point x="299" y="-12"/>
      <point x="189" y="-12" type="curve" smooth="yes"/>
      <point x="79" y="-12"/>
      <point x="20" y="97"/>
      <point x="20" y="208" type="curve" smooth="yes"/>
      <point x="20" y="319"/>
      <point x="79" y="428"/>
      <point x="189" y="428" type="curve" smooth="yes"/>
      <point x="299" y="428"/>
      <point x="358" y="319"/>
    </contour>
    <contour>
      <point x="233" y="208" type="curve" smooth="yes"/>
      <point x="233" y="284"/>
      <point x="219" y="320"/>
      <point x="189" y="320" type="curve" smooth="yes"/>
      <point x="159" y="320"/>
      <point x="145" y="284"/>
      <point x="145" y="208" type="curve" smooth="yes"/>
      <point x="145" y="132"/>
      <point x="159" y="96"/>
      <point x="189" y="96" type="curve" smooth="yes"/>
      <point x="219" y="96"/>
      <point x="233" y="132"/>
    </contour>
  </outline>
</glyph>
<glyph name="r" format="1">
  <advance width="259"/>
  <unicode hex="0072"/>
  <outline>
    <contour>
      <point x="242" y="301" type="line"/>
      <point x="190" y="293"/>
      <point x="160" y="239"/>
      <point x="160" y="180" type="curve" smooth="yes"/>
      <point x="160" y="0" type="line"/>
      <point x="35" y="0" type="line"/>
      <point x="35" y="416" type="line"/>
      <point x="160" y="416" type="line"/>
      <point x="160" y="373" type="line"/>
      <point x="179" y="402"/>
      <point x="212" y="423"/>
      <point x="242" y="428" type="curve"/>
    </contour>
  </outline>
</glyph>
<glyph name="s" format="1">
  <advance width="306"/>
  <unicode hex="0073"/>
  <outline>
    <contour>
      <point x="287" y="109" type="curve" smooth="yes"/>
      <point x="287" y="36"/>
      <point x="237" y="-12"/>
      <point x="150" y="-12" type="curve" smooth="yes"/>
      <point x="94" y="-12"/>
      <point x="54" y="8"/>
      <point x="19" y="36" type="curve"/>
      <point x="75" y="114" type="line"/>
      <point x="96" y="93"/>
      <point x="122" y="81"/>
      <point x="150" y="81" type="curve" smooth="yes"/>
      <point x="167" y="81"/>
      <point x="174" y="94"/>
      <point x="174" y="106" type="curve" smooth="yes"/>
      <point x="174" y="125"/>
      <point x="140" y="146"/>
      <point x="105" y="175" type="curve" smooth="yes"/>
      <point x="67" y="207"/>
      <point x="29" y="248"/>
      <point x="29" y="307" type="curve" smooth="yes"/>
      <point x="29" y="372"/>
      <point x="76" y="428"/>
      <point x="163" y="428" type="curve" smooth="yes"/>
      <point x="210" y="428"/>
      <point x="253" y="407"/>
      <point x="279" y="378" type="curve"/>
      <point x="224" y="301" type="line"/>
      <point x="210" y="320"/>
      <point x="190" y="335"/>
      <point x="168" y="335" type="curve" smooth="yes"/>
      <point x="152" y="335"/>
      <point x="144" y="326"/>
      <point x="144" y="315" type="curve" smooth="yes"/>
      <point x="144" y="294"/>
      <point x="183" y="271"/>
      <point x="221" y="237" type="curve" smooth="yes"/>
      <point x="255" y="206"/>
      <point x="287" y="166"/>
    </contour>
  </outline>
</glyph>
<glyph name="t" format="1">
  <advance width="255"/>
  <unicode hex="0074"/>
  <outline>
    <contour>
      <point x="229" y="311" type="line"/>
      <point x="180" y="311" type="line"/>
      <point x="180" y="134" type="line" smooth="yes"/>
      <point x="180" y="115"/>
      <point x="191" y="103"/>
      <point x="211" y="103" type="curve" smooth="yes"/>
      <point x="228" y="103" type="line"/>
      <point x="228" y="-6" type="line"/>
      <point x="175" y="-6" type="line" smooth="yes"/>
      <point x="88" y="-6"/>
      <point x="55" y="42"/>
      <point x="55" y="116" type="curve" smooth="yes"/>
      <point x="55" y="311" type="line"/>
      <point x="11" y="311" type="line"/>
      <point x="11" y="416" type="line"/>
      <point x="55" y="416" type="line"/>
      <point x="55" y="605" type="line"/>
      <point x="180" y="605" type="line"/>
      <point x="180" y="416" type="line"/>
      <point x="229" y="416" type="line"/>
    </contour>
  </outline>
</glyph>
<glyph name="u" format="1">
  <advance width="377"/>
  <unicode hex="0075"/>
  <outline>
    <contour>
      <point x="342" y="0" type="line"/>
      <point x="217" y="0" type="line"/>
      <point x="217" y="43" type="line"/>
      <point x="194" y="9"/>
      <point x="163" y="-12"/>
      <point x="120" y="-12" type="curve" smooth="yes"/>
      <point x="52" y="-12"/>
      <point x="30" y="49"/>
      <point x="30" y="96" type="curve" smooth="yes"/>
      <point x="30" y="416" type="line"/>
      <point x="155" y="416" type="line"/>
      <point x="155" y="158" type="line" smooth="yes"/>
      <point x="155" y="135"/>
      <point x="160" y="108"/>
      <point x="184" y="108" type="curve" smooth="yes"/>
      <point x="209" y="108"/>
      <point x="217" y="135"/>
      <point x="217" y="158" type="curve" smooth="yes"/>
      <point x="217" y="416" type="line"/>
      <point x="342" y="416" type="line"/>
    </contour>
  </outline>
</glyph>
<glyph name="v" format="1">
  <advance width="364"/>
  <unicode hex="0076"/>
  <outline>
    <contour>
      <point x="354" y="416" type="line"/>
      <point x="209" y="0" type="line"/>
      <point x="155" y="0" type="line"/>
      <point x="10" y="416" type="line"/>
      <point x="132" y="416" type="line"/>
      <point x="175" y="250" type="line" smooth="yes"/>
      <point x="178" y="237"/>
      <point x="183" y="214"/>
      <point x="183" y="214" type="curve"/>
      <point x="183" y="214"/>
      <point x="188" y="237"/>
      <point x="191" y="250" type="curve" smooth="yes"/>
      <point x="232" y="416" type="line"/>
    </contour>
  </outline>
</glyph>
<glyph name="w" format="1">
  <advance width="494"/>
  <unicode hex="0077"/>
  <outline>
    <contour>
      <point x="484" y="416" type="line"/>
      <point x="357" y="0" type="line"/>
      <point x="295" y="0" type="line"/>
      <point x="256" y="126" type="line" smooth="yes"/>
      <point x="252" y="140"/>
      <point x="247" y="160"/>
      <point x="247" y="160" type="curve"/>
      <point x="247" y="160"/>
      <point x="243" y="138"/>
      <point x="239" y="127" type="curve" smooth="yes"/>
      <point x="199" y="0" type="line"/>
      <point x="137" y="0" type="line"/>
      <point x="10" y="416" type="line"/>
      <point x="123" y="416" type="line"/>
      <point x="173" y="238" type="line" smooth="yes"/>
      <point x="176" y="227"/>
      <point x="181" y="203"/>
      <point x="181" y="203" type="curve"/>
      <point x="181" y="203"/>
      <point x="186" y="228"/>
      <point x="189" y="238" type="curve" smooth="yes"/>
      <point x="248" y="448" type="line"/>
      <point x="308" y="236" type="line" smooth="yes"/>
      <point x="311" y="224"/>
      <point x="315" y="203"/>
      <point x="315" y="203" type="curve"/>
      <point x="315" y="203"/>
      <point x="319" y="225"/>
      <point x="322" y="237" type="curve" smooth="yes"/>
      <point x="371" y="416" type="line"/>
    </contour>
  </outline>
</glyph>
<glyph name="x" format="1">
  <advance width="370"/>
  <unicode hex="0078"/>
  <outline>
    <contour>
      <point x="356" y="0" type="line"/>
      <point x="231" y="0" type="line"/>
      <point x="196" y="80" type="line" smooth="yes"/>
      <point x="191" y="92"/>
      <point x="185" y="112"/>
      <point x="185" y="112" type="curve"/>
      <point x="185" y="112"/>
      <point x="179" y="92"/>
      <point x="174" y="80" type="curve" smooth="yes"/>
      <point x="139" y="0" type="line"/>
      <point x="14" y="0" type="line"/>
      <point x="127" y="215" type="line"/>
      <point x="19" y="416" type="line"/>
      <point x="144" y="416" type="line"/>
      <point x="174" y="348" type="line" smooth="yes"/>
      <point x="179" y="338"/>
      <point x="185" y="318"/>
      <point x="185" y="318" type="curve"/>
      <point x="185" y="318"/>
      <point x="193" y="339"/>
      <point x="197" y="349" type="curve" smooth="yes"/>
      <point x="226" y="416" type="line"/>
      <point x="351" y="416" type="line"/>
      <point x="243" y="216" type="line"/>
    </contour>
  </outline>
</glyph>
<glyph name="y" format="1">
  <advance width="374"/>
  <unicode hex="0079"/>
  <outline>
    <contour>
      <point x="364" y="416" type="line"/>
      <point x="221" y="-78" type="line" smooth="yes"/>
      <point x="207" y="-125"/>
      <point x="181" y="-179"/>
      <point x="100" y="-179" type="curve" smooth="yes"/>
      <point x="83" y="-179"/>
      <point x="67" y="-177"/>
      <point x="58" y="-174" type="curve"/>
      <point x="58" y="-67" type="line"/>
      <point x="64" y="-69"/>
      <point x="69" y="-69"/>
      <point x="76" y="-69" type="curve" smooth="yes"/>
      <point x="101" y="-69"/>
      <point x="119" y="-59"/>
      <point x="126" y="-31" type="curve" smooth="yes"/>
      <point x="134" y="0" type="line"/>
      <point x="10" y="416" type="line"/>
      <point x="132" y="416" type="line"/>
      <point x="180" y="216" type="line" smooth="yes"/>
      <point x="183" y="203"/>
      <point x="188" y="172"/>
      <point x="188" y="172" type="curve"/>
      <point x="188" y="172"/>
      <point x="193" y="202"/>
      <point x="196" y="217" type="curve" smooth="yes"/>
      <point x="242" y="416" type="line"/>
    </contour>
  </outline>
</glyph>
<glyph name="z" format="1">
  <advance width="370"/>
  <unicode hex="007A"/>
  <outline>
    <contour>
      <point x="352" y="416" type="line"/>
      <point x="206" y="123" type="line" smooth="yes"/>
      <point x="202" y="114"/>
      <point x="194" y="104"/>
      <point x="194" y="104" type="curve"/>
      <point x="194" y="104"/>
      <point x="203" y="105"/>
      <point x="213" y="105" type="curve" smooth="yes"/>
      <point x="340" y="105" type="line"/>
      <point x="340" y="0" type="line"/>
      <point x="17" y="0" type="line"/>
      <point x="169" y="296" type="line" smooth="yes"/>
      <point x="173" y="304"/>
      <point x="181" y="312"/>
      <point x="181" y="312" type="curve"/>
      <point x="181" y="312"/>
      <point x="167" y="311"/>
      <point x="160" y="311" type="curve" smooth="yes"/>
      <point x="36" y="311" type="line"/>
      <point x="36" y="416" type="line"/>
    </contour>
  </outline>
</glyph>
<glyph name="braceleft" format="1">
  <advance width="315"/>
  <unicode hex="007B"/>
  <outline>
    <contour>
      <point x="291" y="-179" type="line"/>
      <point x="144" y="-155"/>
      <point x="90" y="-59"/>
      <point x="90" y="88" type="curve" smooth="yes"/>
      <point x="90" y="172"/>
      <point x="84" y="213"/>
      <point x="15" y="223" type="curve"/>
      <point x="15" y="339" type="line"/>
      <point x="84" y="350"/>
      <point x="90" y="391"/>
      <point x="90" y="475" type="curve" smooth="yes"/>
      <point x="90" y="622"/>
      <point x="144" y="718"/>
      <point x="291" y="742" type="curve"/>
      <point x="291" y="632" type="line"/>
      <point x="246" y="598"/>
      <point x="230" y="568"/>
      <point x="230" y="499" type="curve" smooth="yes"/>
      <point x="230" y="391"/>
      <point x="221" y="322"/>
      <point x="138" y="281" type="curve"/>
      <point x="222" y="239"/>
      <point x="230" y="171"/>
      <point x="230" y="64" type="curve" smooth="yes"/>
      <point x="230" y="-5"/>
      <point x="246" y="-35"/>
      <point x="291" y="-69" type="curve"/>
    </contour>
  </outline>
</glyph>
<glyph name="braceright" format="1">
  <advance width="315"/>
  <unicode hex="007D"/>
  <outline>
    <contour>
      <point x="300" y="224" type="line"/>
      <point x="231" y="213"/>
      <point x="225" y="172"/>
      <point x="225" y="88" type="curve" smooth="yes"/>
      <point x="225" y="-59"/>
      <point x="171" y="-155"/>
      <point x="24" y="-179" type="curve"/>
      <point x="24" y="-69" type="line"/>
      <point x="69" y="-35"/>
      <point x="85" y="-5"/>
      <point x="85" y="64" type="curve" smooth="yes"/>
      <point x="85" y="172"/>
      <point x="94" y="241"/>
      <point x="177" y="282" type="curve"/>
      <point x="93" y="324"/>
      <point x="85" y="392"/>
      <point x="85" y="499" type="curve" smooth="yes"/>
      <point x="85" y="568"/>
      <point x="69" y="598"/>
      <point x="24" y="632" type="curve"/>
      <point x="24" y="742" type="line"/>
      <point x="171" y="718"/>
      <point x="225" y="622"/>
      <point x="225" y="475" type="curve" smooth="yes"/>
      <point x="225" y="391"/>
      <point x="231" y="350"/>
      <point x="300" y="340" type="curve"/>
    </contour>
  </outline>
</glyph>
<glyph name="asciitilde" format="1">
  <advance width="540"/>
  <unicode hex="007E"/>
  <outline>
    <contour>
      <point x="510" y="474" type="line"/>
      <point x="510" y="364"/>
      <point x="469" y="257"/>
      <point x="377" y="257" type="curve" smooth="yes"/>
      <point x="336" y="257"/>
      <point x="301" y="274"/>
      <point x="271" y="292" type="curve" smooth="yes"/>
      <point x="236" y="313"/>
      <point x="209" y="337"/>
      <point x="192" y="337" type="curve" smooth="yes"/>
      <point x="171" y="337"/>
      <point x="164" y="299"/>
      <point x="164" y="260" type="curve"/>
      <point x="30" y="260" type="line"/>
      <point x="30" y="370"/>
      <point x="67" y="476"/>
      <point x="163" y="476" type="curve" smooth="yes"/>
      <point x="203" y="476"/>
      <point x="240" y="458"/>
      <point x="271" y="438" type="curve" smooth="yes"/>
      <point x="304" y="418"/>
      <point x="331" y="396"/>
      <point x="348" y="396" type="curve" smooth="yes"/>
      <point x="369" y="396"/>
      <point x="376" y="434"/>
      <point x="376" y="474" type="curve"/>
    </contour>
  </outline>
</glyph>
<glyph name="exclamdown" format="1">
  <advance width="233"/>
  <unicode hex="00A1"/>
  <outline>
    <contour>
      <point x="183" y="589" type="line"/>
      <point x="50" y="589" type="line"/>
      <point x="50" y="730" type="line"/>
      <point x="183" y="730" type="line"/>
    </contour>
    <contour>
      <point x="183" y="0" type="line"/>
      <point x="50" y="0" type="line"/>
      <point x="50" y="299" type="line"/>
      <point x="77" y="553" type="line"/>
      <point x="156" y="553" type="line"/>
      <point x="183" y="299" type="line"/>
    </contour>
  </outline>
</glyph>
<glyph name="cent" format="1">
  <advance width="345"/>
  <unicode hex="00A2"/>
  <outline>
    <contour>
      <point x="328" y="78" type="line"/>
      <point x="304" y="33"/>
      <point x="266" y="-1"/>
      <point x="216" y="-10" type="curve"/>
      <point x="216" y="-79" type="line"/>
      <point x="164" y="-79" type="line"/>
      <point x="164" y="-10" type="line"/>
      <point x="70" y="5"/>
      <point x="20" y="106"/>
      <point x="20" y="208" type="curve" smooth="yes"/>
      <point x="20" y="310"/>
      <point x="70" y="411"/>
      <point x="164" y="426" type="curve"/>
      <point x="164" y="495" type="line"/>
      <point x="216" y="495" type="line"/>
      <point x="216" y="426" type="line"/>
      <point x="267" y="417"/>
      <point x="304" y="383"/>
      <point x="328" y="337" type="curve"/>
      <point x="243" y="268" type="line"/>
      <point x="233" y="305"/>
      <point x="217" y="320"/>
      <point x="189" y="320" type="curve" smooth="yes"/>
      <point x="159" y="320"/>
      <point x="145" y="284"/>
      <point x="145" y="208" type="curve" smooth="yes"/>
      <point x="145" y="132"/>
      <point x="159" y="96"/>
      <point x="189" y="96" type="curve" smooth="yes"/>
      <point x="216" y="96"/>
      <point x="235" y="118"/>
      <point x="243" y="154" type="curve"/>
    </contour>
  </outline>
</glyph>
<glyph name="sterling" format="1">
  <advance width="470"/>
  <unicode hex="00A3"/>
  <outline>
    <contour>
      <point x="450" y="176" type="line"/>
      <point x="450" y="83"/>
      <point x="423" y="-12"/>
      <point x="317" y="-12" type="curve" smooth="yes"/>
      <point x="279" y="-12"/>
      <point x="248" y="8"/>
      <point x="221" y="31" type="curve"/>
      <point x="196" y="5"/>
      <point x="164" y="-12"/>
      <point x="121" y="-12" type="curve" smooth="yes"/>
      <point x="57" y="-12"/>
      <point x="16" y="28"/>
      <point x="16" y="83" type="curve" smooth="yes"/>
      <point x="16" y="134"/>
      <point x="48" y="177"/>
      <point x="110" y="177" type="curve" smooth="yes"/>
      <point x="137" y="177"/>
      <point x="161" y="166"/>
      <point x="184" y="151" type="curve"/>
      <point x="186" y="166"/>
      <point x="187" y="181"/>
      <point x="187" y="195" type="curve" smooth="yes"/>
      <point x="187" y="233"/>
      <point x="172" y="273"/>
      <point x="153" y="314" type="curve"/>
      <point x="47" y="314" type="line"/>
      <point x="47" y="370" type="line"/>
      <point x="125" y="370" type="line"/>
      <point x="95" y="431"/>
      <point x="64" y="493"/>
      <point x="64" y="559" type="curve" smooth="yes"/>
      <point x="64" y="666"/>
      <point x="126" y="742"/>
      <point x="246" y="742" type="curve" smooth="yes"/>
      <point x="371" y="742"/>
      <point x="413" y="648"/>
      <point x="413" y="559" type="curve"/>
      <point x="292" y="559" type="line"/>
      <point x="292" y="591"/>
      <point x="286" y="642"/>
      <point x="241" y="642" type="curve" smooth="yes"/>
      <point x="202" y="642"/>
      <point x="193" y="596"/>
      <point x="193" y="564" type="curve" smooth="yes"/>
      <point x="193" y="488"/>
      <point x="227" y="432"/>
      <point x="253" y="370" type="curve"/>
      <point x="365" y="370" type="line"/>
      <point x="365" y="314" type="line"/>
      <point x="274" y="314" type="line"/>
      <point x="281" y="290"/>
      <point x="285" y="264"/>
      <point x="285" y="235" type="curve" smooth="yes"/>
      <point x="285" y="193"/>
      <point x="278" y="141"/>
      <point x="260" y="97" type="curve"/>
      <point x="274" y="88"/>
      <point x="288" y="83"/>
      <point x="303" y="83" type="curve" smooth="yes"/>
      <point x="343" y="83"/>
      <point x="347" y="136"/>
      <point x="347" y="176" type="curve"/>
    </contour>
    <contour>
      <point x="163" y="82" type="curve"/>
      <point x="147" y="95"/>
      <point x="131" y="103"/>
      <point x="115" y="103" type="curve" smooth="yes"/>
      <point x="99" y="103"/>
      <point x="82" y="92"/>
      <point x="82" y="75" type="curve" smooth="yes"/>
      <point x="82" y="59"/>
      <point x="95" y="45"/>
      <point x="110" y="45" type="curve" smooth="yes"/>
      <point x="133" y="45"/>
      <point x="150" y="60"/>
    </contour>
  </outline>
</glyph>
<glyph name="yen" format="1">
  <advance width="471"/>
  <unicode hex="00A5"/>
  <outline>
    <contour>
      <point x="461" y="730" type="line"/>
      <point x="305" y="321" type="line"/>
      <point x="305" y="286" type="line"/>
      <point x="400" y="286" type="line"/>
      <point x="400" y="217" type="line"/>
      <point x="305" y="217" type="line"/>
      <point x="305" y="160" type="line"/>
      <point x="400" y="160" type="line"/>
      <point x="400" y="91" type="line"/>
      <point x="305" y="91" type="line"/>
      <point x="305" y="0" type="line"/>
      <point x="165" y="0" type="line"/>
      <point x="165" y="91" type="line"/>
      <point x="70" y="91" type="line"/>
      <point x="70" y="160" type="line"/>
      <point x="165" y="160" type="line"/>
      <point x="165" y="217" type="line"/>
      <point x="70" y="217" type="line"/>
      <point x="70" y="286" type="line"/>
      <point x="165" y="286" type="line"/>
      <point x="165" y="323" type="line"/>
      <point x="10" y="730" type="line"/>
      <point x="157" y="730" type="line"/>
      <point x="236" y="481" type="line"/>
      <point x="316" y="730" type="line"/>
    </contour>
  </outline>
</glyph>
<glyph name="brokenbar" format="1">
  <advance width="224"/>
  <unicode hex="00A6"/>
  <outline>
    <contour>
      <point x="50" y="351" type="line"/>
      <point x="50" y="730" type="line"/>
      <point x="174" y="730" type="line"/>
      <point x="174" y="351" type="line"/>
    </contour>
    <contour>
      <point x="174" y="200" type="line"/>
      <point x="174" y="-179" type="line"/>
      <point x="50" y="-179" type="line"/>
      <point x="50" y="200" type="line"/>
    </contour>
  </outline>
</glyph>
<glyph name="section" format="1">
  <advance width="521"/>
  <unicode hex="00A7"/>
  <outline>
    <contour>
      <point x="491" y="304" type="curve" smooth="yes"/>
      <point x="491" y="221"/>
      <point x="450" y="167"/>
      <point x="405" y="133" type="curve"/>
      <point x="437" y="104"/>
      <point x="456" y="66"/>
      <point x="456" y="12" type="curve" smooth="yes"/>
      <point x="456" y="-98"/>
      <point x="372" y="-179"/>
      <point x="247" y="-179" type="curve" smooth="yes"/>
      <point x="186" y="-179"/>
      <point x="133" y="-164"/>
      <point x="80" y="-128" type="curve"/>
      <point x="144" y="-18" type="line"/>
      <point x="179" y="-45"/>
      <point x="211" y="-54"/>
      <point x="253" y="-54" type="curve" smooth="yes"/>
      <point x="288" y="-54"/>
      <point x="313" y="-31"/>
      <point x="313" y="-2" type="curve" smooth="yes"/>
      <point x="313" y="38"/>
      <point x="292" y="56"/>
      <point x="212" y="82" type="curve" smooth="yes"/>
      <point x="93" y="121"/>
      <point x="30" y="156"/>
      <point x="30" y="259" type="curve" smooth="yes"/>
      <point x="30" y="342"/>
      <point x="71" y="396"/>
      <point x="116" y="430" type="curve"/>
      <point x="84" y="459"/>
      <point x="65" y="497"/>
      <point x="65" y="551" type="curve" smooth="yes"/>
      <point x="65" y="661"/>
      <point x="149" y="742"/>
      <point x="274" y="742" type="curve" smooth="yes"/>
      <point x="335" y="742"/>
      <point x="388" y="727"/>
      <point x="441" y="691" type="curve"/>
      <point x="377" y="581" type="line"/>
      <point x="342" y="608"/>
      <point x="310" y="617"/>
      <point x="268" y="617" type="curve" smooth="yes"/>
      <point x="233" y="617"/>
      <point x="208" y="594"/>
      <point x="208" y="565" type="curve" smooth="yes"/>
      <point x="208" y="525"/>
      <point x="229" y="507"/>
      <point x="309" y="481" type="curve" smooth="yes"/>
      <point x="428" y="442"/>
      <point x="491" y="407"/>
    </contour>
    <contour>
      <point x="351" y="281" type="curve" smooth="yes"/>
      <point x="351" y="323"/>
      <point x="323" y="339"/>
      <point x="236" y="368" type="curve" smooth="yes"/>
      <point x="230" y="370"/>
      <point x="225" y="372"/>
      <point x="219" y="374" type="curve"/>
      <point x="190" y="347"/>
      <point x="170" y="315"/>
      <point x="170" y="282" type="curve" smooth="yes"/>
      <point x="170" y="240"/>
      <point x="198" y="224"/>
      <point x="285" y="195" type="curve" smooth="yes"/>
      <point x="291" y="193"/>
      <point x="296" y="191"/>
      <point x="302" y="189" type="curve"/>
      <point x="331" y="216"/>
      <point x="351" y="248"/>
    </contour>
  </outline>
</glyph>
<glyph name="dieresis" format="1">
  <advance width="400"/>
  <unicode hex="00A8"/>
  <outline>
    <contour>
      <point x="315" y="475" type="line"/>
      <point x="221" y="475" type="line"/>
      <point x="221" y="605" type="line"/>
      <point x="315" y="605" type="line"/>
    </contour>
    <contour>
      <point x="179" y="475" type="line"/>
      <point x="85" y="475" type="line"/>
      <point x="85" y="605" type="line"/>
      <point x="179" y="605" type="line"/>
    </contour>
  </outline>
</glyph>
<glyph name="copyright" format="1">
  <advance width="844"/>
  <unicode hex="00A9"/>
  <outline>
    <contour>
      <point x="799" y="365" type="curve" smooth="yes"/>
      <point x="799" y="157"/>
      <point x="630" y="-12"/>
      <point x="422" y="-12" type="curve" smooth="yes"/>
      <point x="214" y="-12"/>
      <point x="45" y="157"/>
      <point x="45" y="365" type="curve" smooth="yes"/>
      <point x="45" y="573"/>
      <point x="214" y="742"/>
      <point x="422" y="742" type="curve" smooth="yes"/>
      <point x="630" y="742"/>
      <point x="799" y="573"/>
    </contour>
    <contour>
      <point x="738" y="364" type="curve" smooth="yes"/>
      <point x="738" y="539"/>
      <point x="597" y="680"/>
      <point x="422" y="680" type="curve" smooth="yes"/>
      <point x="247" y="680"/>
      <point x="106" y="539"/>
      <point x="106" y="364" type="curve" smooth="yes"/>
      <point x="106" y="189"/>
      <point x="247" y="49"/>
      <point x="422" y="49" type="curve" smooth="yes"/>
      <point x="597" y="49"/>
      <point x="738" y="189"/>
    </contour>
    <contour>
      <point x="597" y="223" type="line"/>
      <point x="563" y="177"/>
      <point x="501" y="141"/>
      <point x="424" y="141" type="curve" smooth="yes"/>
      <point x="317" y="141"/>
      <point x="209" y="225"/>
      <point x="209" y="375" type="curve" smooth="yes"/>
      <point x="209" y="492"/>
      <point x="300" y="594"/>
      <point x="426" y="594" type="curve" smooth="yes"/>
      <point x="505" y="594"/>
      <point x="553" y="567"/>
      <point x="588" y="525" type="curve"/>
      <point x="518" y="460" type="line"/>
      <point x="492" y="485"/>
      <point x="473" y="495"/>
      <point x="428" y="495" type="curve" smooth="yes"/>
      <point x="351" y="495"/>
      <point x="311" y="432"/>
      <point x="311" y="375" type="curve" smooth="yes"/>
      <point x="311" y="294"/>
      <point x="369" y="240"/>
      <point x="426" y="240" type="curve" smooth="yes"/>
      <point x="475" y="240"/>
      <point x="501" y="252"/>
      <point x="529" y="284" type="curve"/>
    </contour>
  </outline>
</glyph>
<glyph name="ordfeminine" format="1">
  <advance width="344"/>
  <unicode hex="00AA"/>
  <outline>
    <contour>
      <point x="293" y="399" type="line"/>
      <point x="193" y="399" type="line"/>
      <point x="193" y="425" type="line"/>
      <point x="181" y="405"/>
      <point x="152" y="390"/>
      <point x="126" y="390" type="curve" smooth="yes"/>
      <point x="77" y="390"/>
      <point x="37" y="426"/>
      <point x="37" y="499" type="curve" smooth="yes"/>
      <point x="37" y="579"/>
      <point x="126" y="620"/>
      <point x="193" y="620" type="curve"/>
      <point x="193" y="648"/>
      <point x="193" y="672"/>
      <point x="163" y="672" type="curve" smooth="yes"/>
      <point x="134" y="672"/>
      <point x="108" y="663"/>
      <point x="91" y="651" type="curve"/>
      <point x="65" y="710" type="line"/>
      <point x="89" y="731"/>
      <point x="133" y="742"/>
      <point x="178" y="742" type="curve" smooth="yes"/>
      <point x="269" y="742"/>
      <point x="293" y="686"/>
      <point x="293" y="651" type="curve" smooth="yes"/>
    </contour>
    <contour>
      <point x="295" y="255" type="line"/>
      <point x="37" y="255" type="line"/>
      <point x="37" y="336" type="line"/>
      <point x="295" y="336" type="line"/>
    </contour>
    <contour>
      <point x="193" y="482" type="curve"/>
      <point x="193" y="562" type="line"/>
      <point x="167" y="562"/>
      <point x="135" y="547"/>
      <point x="135" y="503" type="curve" smooth="yes"/>
      <point x="135" y="483"/>
      <point x="145" y="470"/>
      <point x="167" y="470" type="curve" smooth="yes"/>
      <point x="177" y="470"/>
      <point x="186" y="474"/>
    </contour>
  </outline>
</glyph>
<glyph name="guillemotleft" format="1">
  <advance width="310"/>
  <unicode hex="00AB"/>
  <outline>
    <contour>
      <point x="280" y="43" type="line"/>
      <point x="168" y="147" type="line"/>
      <point x="168" y="293" type="line"/>
      <point x="280" y="397" type="line"/>
      <point x="280" y="268" type="line"/>
      <point x="215" y="220" type="line"/>
      <point x="280" y="172" type="line"/>
    </contour>
    <contour>
      <point x="142" y="43" type="line"/>
      <point x="30" y="147" type="line"/>
      <point x="30" y="293" type="line"/>
      <point x="142" y="397" type="line"/>
      <point x="142" y="268" type="line"/>
      <point x="77" y="220" type="line"/>
      <point x="142" y="172" type="line"/>
    </contour>
  </outline>
</glyph>
<glyph name="degree" format="1">
  <advance width="378"/>
  <unicode hex="00B0"/>
  <outline>
    <contour>
      <point x="358" y="573" type="curve" smooth="yes"/>
      <point x="358" y="479"/>
      <point x="283" y="404"/>
      <point x="189" y="404" type="curve" smooth="yes"/>
      <point x="95" y="404"/>
      <point x="20" y="479"/>
      <point x="20" y="573" type="curve" smooth="yes"/>
      <point x="20" y="667"/>
      <point x="95" y="742"/>
      <point x="189" y="742" type="curve" smooth="yes"/>
      <point x="283" y="742"/>
      <point x="358" y="667"/>
    </contour>
    <contour>
      <point x="270" y="573" type="curve" smooth="yes"/>
      <point x="270" y="617"/>
      <point x="233" y="654"/>
      <point x="189" y="654" type="curve" smooth="yes"/>
      <point x="145" y="654"/>
      <point x="108" y="617"/>
      <point x="108" y="573" type="curve" smooth="yes"/>
      <point x="108" y="529"/>
      <point x="145" y="492"/>
      <point x="189" y="492" type="curve" smooth="yes"/>
      <point x="233" y="492"/>
      <point x="270" y="529"/>
    </contour>
  </outline>
</glyph>
<glyph name="twosuperior" format="1">
  <advance width="323"/>
  <unicode hex="00B2"/>
  <outline>
    <contour>
      <point x="208" y="390" type="line"/>
      <point x="287" y="390" type="line"/>
      <point x="287" y="279" type="line"/>
      <point x="31" y="279" type="line"/>
      <point x="144" y="482" type="line" smooth="yes"/>
      <point x="164" y="518"/>
      <point x="183" y="564"/>
      <point x="183" y="587" type="curve" smooth="yes"/>
      <point x="183" y="603"/>
      <point x="181" y="632"/>
      <point x="157" y="632" type="curve" smooth="yes"/>
      <point x="132" y="632"/>
      <point x="121" y="602"/>
      <point x="121" y="578" type="curve" smooth="yes"/>
      <point x="121" y="556" type="line"/>
      <point x="22" y="556" type="line"/>
      <point x="22" y="587" type="line" smooth="yes"/>
      <point x="22" y="665"/>
      <point x="74" y="740"/>
      <point x="161" y="740" type="curve" smooth="yes"/>
      <point x="249" y="740"/>
      <point x="289" y="673"/>
      <point x="289" y="596" type="curve" smooth="yes"/>
      <point x="289" y="553"/>
      <point x="273" y="516"/>
      <point x="247" y="465" type="curve" smooth="yes"/>
    </contour>
  </outline>
</glyph>
<glyph name="acute" format="1">
  <advance width="400"/>
  <unicode hex="00B4"/>
  <outline>
    <contour>
      <point x="315" y="642" type="line"/>
      <point x="214" y="475" type="line"/>
      <point x="118" y="475" type="line"/>
      <point x="195" y="642" type="line"/>
    </contour>
  </outline>
</glyph>
<glyph name="paragraph" format="1">
  <advance width="584"/>
  <unicode hex="00B6"/>
  <outline>
    <contour>
      <point x="534" y="-179" type="line"/>
      <point x="417" y="-179" type="line"/>
      <point x="417" y="622" type="line"/>
      <point x="360" y="622" type="line"/>
      <point x="360" y="-179" type="line"/>
      <point x="243" y="-179" type="line"/>
      <point x="243" y="223" type="line"/>
      <point x="120" y="223"/>
      <point x="20" y="318"/>
      <point x="20" y="482" type="curve" smooth="yes"/>
      <point x="20" y="653"/>
      <point x="138" y="730"/>
      <point x="241" y="730" type="curve" smooth="yes"/>
      <point x="534" y="730" type="line"/>
    </contour>
    <contour>
      <point x="243" y="334" type="curve"/>
      <point x="243" y="622" type="line"/>
      <point x="187" y="622"/>
      <point x="155" y="577"/>
      <point x="155" y="482" type="curve" smooth="yes"/>
      <point x="155" y="387"/>
      <point x="187" y="334"/>
    </contour>
  </outline>
</glyph>
<glyph name="cedilla" format="1">
  <advance width="400"/>
  <unicode hex="00B8"/>
  <outline>
    <contour>
      <point x="290" y="-95" type="curve" smooth="yes"/>
      <point x="290" y="-149"/>
      <point x="242" y="-179"/>
      <point x="190" y="-179" type="curve" smooth="yes"/>
      <point x="153" y="-179"/>
      <point x="118" y="-169"/>
      <point x="91" y="-147" type="curve"/>
      <point x="123" y="-107" type="line"/>
      <point x="145" y="-122"/>
      <point x="165" y="-127"/>
      <point x="187" y="-127" type="curve" smooth="yes"/>
      <point x="206" y="-127"/>
      <point x="219" y="-122"/>
      <point x="219" y="-101" type="curve" smooth="yes"/>
      <point x="219" y="-86"/>
      <point x="207" y="-79"/>
      <point x="188" y="-79" type="curve" smooth="yes"/>
      <point x="177" y="-79"/>
      <point x="161" y="-80"/>
      <point x="150" y="-84" type="curve"/>
      <point x="129" y="-53" type="line"/>
      <point x="177" y="14" type="line"/>
      <point x="243" y="14" type="line"/>
      <point x="210" y="-32" type="line"/>
      <point x="264" y="-29"/>
      <point x="290" y="-58"/>
    </contour>
  </outline>
</glyph>
<glyph name="ordmasculine" format="1">
  <advance width="344"/>
  <unicode hex="00BA"/>
  <outline>
    <contour>
      <point x="307" y="566" type="curve" smooth="yes"/>
      <point x="307" y="477"/>
      <point x="260" y="390"/>
      <point x="172" y="390" type="curve" smooth="yes"/>
      <point x="84" y="390"/>
      <point x="37" y="477"/>
      <point x="37" y="566" type="curve" smooth="yes"/>
      <point x="37" y="655"/>
      <point x="84" y="742"/>
      <point x="172" y="742" type="curve" smooth="yes"/>
      <point x="260" y="742"/>
      <point x="307" y="655"/>
    </contour>
    <contour>
      <point x="309" y="255" type="line"/>
      <point x="35" y="255" type="line"/>
      <point x="35" y="336" type="line"/>
      <point x="309" y="336" type="line"/>
    </contour>
    <contour>
      <point x="207" y="566" type="curve" smooth="yes"/>
      <point x="207" y="627"/>
      <point x="196" y="656"/>
      <point x="172" y="656" type="curve" smooth="yes"/>
      <point x="148" y="656"/>
      <point x="137" y="627"/>
      <point x="137" y="566" type="curve" smooth="yes"/>
      <point x="137" y="505"/>
      <point x="148" y="476"/>
      <point x="172" y="476" type="curve" smooth="yes"/>
      <point x="196" y="476"/>
      <point x="207" y="505"/>
    </contour>
  </outline>
</glyph>
<glyph name="guillemotright" format="1">
  <advance width="310"/>
  <unicode hex="00BB"/>
  <outline>
    <contour>
      <point x="280" y="147" type="line"/>
      <point x="168" y="43" type="line"/>
      <point x="168" y="172" type="line"/>
      <point x="233" y="220" type="line"/>
      <point x="168" y="268" type="line"/>
      <point x="168" y="397" type="line"/>
      <point x="280" y="293" type="line"/>
    </contour>
    <contour>
      <point x="142" y="147" type="line"/>
      <point x="30" y="43" type="line"/>
      <point x="30" y="172" type="line"/>
      <point x="95" y="220" type="line"/>
      <point x="30" y="268" type="line"/>
      <point x="30" y="397" type="line"/>
      <point x="142" y="293" type="line"/>
    </contour>
  </outline>
</glyph>
<glyph name="onequarter" format="1">
  <advance width="705"/>
  <unicode hex="00BC"/>
  <outline>
    <contour>
      <point x="165" y="279" type="line"/>
      <point x="57" y="279" type="line"/>
      <point x="57" y="598" type="line"/>
      <point x="49" y="589"/>
      <point x="24" y="579"/>
      <point x="13" y="577" type="curve"/>
      <point x="13" y="670" type="line"/>
      <point x="37" y="675"/>
      <point x="71" y="698"/>
      <point x="78" y="729" type="curve"/>
      <point x="165" y="729" type="line"/>
    </contour>
    <contour>
      <point x="528" y="730" type="line"/>
      <point x="209" y="0" type="line"/>
      <point x="104" y="0" type="line"/>
      <point x="423" y="730" type="line"/>
    </contour>
    <contour>
      <point x="684" y="87" type="line"/>
      <point x="643" y="87" type="line"/>
      <point x="643" y="0" type="line"/>
      <point x="533" y="0" type="line"/>
      <point x="533" y="87" type="line"/>
      <point x="390" y="87" type="line"/>
      <point x="390" y="189" type="line"/>
      <point x="515" y="451" type="line"/>
      <point x="643" y="451" type="line"/>
      <point x="643" y="191" type="line"/>
      <point x="684" y="191" type="line"/>
    </contour>
    <contour>
      <point x="533" y="191" type="line"/>
      <point x="533" y="297" type="line"/>
      <point x="485" y="191" type="line"/>
    </contour>
  </outline>
</glyph>
<glyph name="onehalf" format="1">
  <advance width="693"/>
  <unicode hex="00BD"/>
  <outline>
    <contour>
      <point x="165" y="279" type="line"/>
      <point x="57" y="279" type="line"/>
      <point x="57" y="598" type="line"/>
      <point x="49" y="589"/>
      <point x="24" y="579"/>
      <point x="13" y="577" type="curve"/>
      <point x="13" y="670" type="line"/>
      <point x="37" y="675"/>
      <point x="71" y="698"/>
      <point x="78" y="729" type="curve"/>
      <point x="165" y="729" type="line"/>
    </contour>
    <contour>
      <point x="517" y="730" type="line"/>
      <point x="198" y="0" type="line"/>
      <point x="93" y="0" type="line"/>
      <point x="412" y="730" type="line"/>
    </contour>
    <contour>
      <point x="588" y="111" type="line"/>
      <point x="667" y="111" type="line"/>
      <point x="667" y="0" type="line"/>
      <point x="411" y="0" type="line"/>
      <point x="524" y="203" type="line" smooth="yes"/>
      <point x="544" y="239"/>
      <point x="563" y="285"/>
      <point x="563" y="308" type="curve" smooth="yes"/>
      <point x="563" y="324"/>
      <point x="561" y="353"/>
      <point x="537" y="353" type="curve" smooth="yes"/>
      <point x="512" y="353"/>
      <point x="501" y="323"/>
      <point x="501" y="299" type="curve" smooth="yes"/>
      <point x="501" y="277" type="line"/>
      <point x="402" y="277" type="line"/>
      <point x="402" y="308" type="line" smooth="yes"/>
      <point x="402" y="386"/>
      <point x="454" y="461"/>
      <point x="541" y="461" type="curve" smooth="yes"/>
      <point x="629" y="461"/>
      <point x="669" y="394"/>
      <point x="669" y="317" type="curve" smooth="yes"/>
      <point x="669" y="274"/>
      <point x="653" y="237"/>
      <point x="627" y="186" type="curve" smooth="yes"/>
    </contour>
  </outline>
</glyph>
<glyph name="threequarters" format="1">
  <advance width="797"/>
  <unicode hex="00BE"/>
  <outline>
    <contour>
      <point x="279" y="423" type="curve" smooth="yes"/>
      <point x="279" y="328"/>
      <point x="225" y="264"/>
      <point x="140" y="264" type="curve" smooth="yes"/>
      <point x="75" y="264"/>
      <point x="40" y="308"/>
      <point x="22" y="343" type="curve"/>
      <point x="102" y="405" type="line"/>
      <point x="111" y="384"/>
      <point x="122" y="370"/>
      <point x="141" y="370" type="curve" smooth="yes"/>
      <point x="165" y="370"/>
      <point x="172" y="393"/>
      <point x="172" y="426" type="curve" smooth="yes"/>
      <point x="172" y="454"/>
      <point x="162" y="472"/>
      <point x="131" y="472" type="curve" smooth="yes"/>
      <point x="116" y="472" type="line"/>
      <point x="116" y="549" type="line"/>
      <point x="125" y="549" type="line" smooth="yes"/>
      <point x="157" y="549"/>
      <point x="168" y="565"/>
      <point x="168" y="598" type="curve" smooth="yes"/>
      <point x="168" y="615"/>
      <point x="164" y="636"/>
      <point x="144" y="636" type="curve" smooth="yes"/>
      <point x="124" y="636"/>
      <point x="119" y="610"/>
      <point x="119" y="590" type="curve"/>
      <point x="27" y="633" type="line"/>
      <point x="35" y="685"/>
      <point x="75" y="741"/>
      <point x="147" y="741" type="curve" smooth="yes"/>
      <point x="233" y="741"/>
      <point x="273" y="672"/>
      <point x="273" y="604" type="curve" smooth="yes"/>
      <point x="273" y="570"/>
      <point x="249" y="530"/>
      <point x="220" y="517" type="curve"/>
      <point x="250" y="505"/>
      <point x="279" y="470"/>
    </contour>
    <contour>
      <point x="609" y="730" type="line"/>
      <point x="290" y="0" type="line"/>
      <point x="185" y="0" type="line"/>
      <point x="504" y="730" type="line"/>
    </contour>
    <contour>
      <point x="776" y="87" type="line"/>
      <point x="735" y="87" type="line"/>
      <point x="735" y="0" type="line"/>
      <point x="625" y="0" type="line"/>
      <point x="625" y="87" type="line"/>
      <point x="482" y="87" type="line"/>
      <point x="482" y="189" type="line"/>
      <point x="607" y="451" type="line"/>
      <point x="735" y="451" type="line"/>
      <point x="735" y="191" type="line"/>
      <point x="776" y="191" type="line"/>
    </contour>
    <contour>
      <point x="625" y="191" type="line"/>
      <point x="625" y="297" type="line"/>
      <point x="577" y="191" type="line"/>
    </contour>
  </outline>
</glyph>
<glyph name="questiondown" format="1">
  <advance width="351"/>
  <unicode hex="00BF"/>
  <outline>
    <contour>
      <point x="243" y="584" type="line"/>
      <point x="130" y="584" type="line"/>
      <point x="130" y="730" type="line"/>
      <point x="243" y="730" type="line"/>
    </contour>
    <contour>
      <point x="344" y="131" type="line"/>
      <point x="333" y="47"/>
      <point x="268" y="-12"/>
      <point x="185" y="-12" type="curve" smooth="yes"/>
      <point x="76" y="-12"/>
      <point x="20" y="73"/>
      <point x="20" y="151" type="curve" smooth="yes"/>
      <point x="20" y="242"/>
      <point x="61" y="283"/>
      <point x="93" y="347" type="curve" smooth="yes"/>
      <point x="114" y="388"/>
      <point x="130" y="437"/>
      <point x="130" y="514" type="curve" smooth="yes"/>
      <point x="130" y="546" type="line"/>
      <point x="243" y="546" type="line"/>
      <point x="243" y="506" type="line" smooth="yes"/>
      <point x="243" y="407"/>
      <point x="225" y="347"/>
      <point x="205" y="303" type="curve" smooth="yes"/>
      <point x="179" y="246"/>
      <point x="149" y="215"/>
      <point x="149" y="158" type="curve" smooth="yes"/>
      <point x="149" y="137"/>
      <point x="160" y="107"/>
      <point x="191" y="107" type="curve" smooth="yes"/>
      <point x="225" y="107"/>
      <point x="243" y="156"/>
      <point x="240" y="192" type="curve"/>
    </contour>
  </outline>
</glyph>
<glyph name="Adieresis" format="1">
  <advance width="511"/>
  <unicode hex="00C4"/>
  <outline>
    <contour>
      <point x="468" y="600" type="line"/>
      <point x="369" y="600" type="line"/>
      <point x="369" y="730" type="line"/>
      <point x="468" y="730" type="line"/>
    </contour>
    <contour>
      <point x="136" y="600" type="line"/>
      <point x="37" y="600" type="line"/>
      <point x="37" y="730" type="line"/>
      <point x="136" y="730" type="line"/>
    </contour>
    <component base="A"/>
  </outline>
</glyph>
<glyph name="Aring" format="1">
  <advance width="511"/>
  <unicode hex="00C5"/>
  <outline>
    <contour>
      <point x="481" y="0" type="line"/>
      <point x="340" y="0" type="line"/>
      <point x="318" y="116" type="line"/>
      <point x="181" y="116" type="line"/>
      <point x="159" y="0" type="line"/>
      <point x="20" y="0" type="line"/>
      <point x="195" y="686" type="line"/>
      <point x="164" y="706"/>
      <point x="142" y="741"/>
      <point x="142" y="779" type="curve" smooth="yes"/>
      <point x="142" y="838"/>
      <point x="193" y="889"/>
      <point x="252" y="889" type="curve" smooth="yes"/>
      <point x="311" y="889"/>
      <point x="362" y="838"/>
      <point x="362" y="779" type="curve" smooth="yes"/>
      <point x="362" y="741"/>
      <point x="341" y="706"/>
      <point x="310" y="686" type="curve"/>
    </contour>
    <contour>
      <point x="298" y="779" type="curve" smooth="yes"/>
      <point x="298" y="804"/>
      <point x="277" y="825"/>
      <point x="252" y="825" type="curve" smooth="yes"/>
      <point x="227" y="825"/>
      <point x="206" y="804"/>
      <point x="206" y="779" type="curve" smooth="yes"/>
      <point x="206" y="754"/>
      <point x="227" y="733"/>
      <point x="252" y="733" type="curve" smooth="yes"/>
      <point x="277" y="733"/>
      <point x="298" y="754"/>
    </contour>
    <contour>
      <point x="298" y="219" type="line"/>
      <point x="257" y="435" type="line" smooth="yes"/>
      <point x="254" y="453"/>
      <point x="250" y="480"/>
      <point x="250" y="480" type="curve"/>
      <point x="250" y="480"/>
      <point x="246" y="453"/>
      <point x="243" y="435" type="curve" smooth="yes"/>
      <point x="201" y="219" type="line"/>
    </contour>
  </outline>
</glyph>
<glyph name="AE" format="1">
  <advance width="720"/>
  <unicode hex="00C6"/>
  <outline>
    <contour>
      <point x="682" y="0" type="line"/>
      <point x="361" y="0" type="line"/>
      <point x="361" y="164" type="line"/>
      <point x="210" y="164" type="line"/>
      <point x="157" y="0" type="line"/>
      <point x="10" y="0" type="line"/>
      <point x="285" y="730" type="line"/>
      <point x="679" y="730" type="line"/>
      <point x="679" y="611" type="line"/>
      <point x="491" y="611" type="line"/>
      <point x="491" y="428" type="line"/>
      <point x="666" y="428" type="line"/>
      <point x="666" y="309" type="line"/>
      <point x="491" y="309" type="line"/>
      <point x="491" y="119" type="line"/>
      <point x="682" y="119" type="line"/>
    </contour>
    <contour>
      <point x="361" y="267" type="line"/>
      <point x="361" y="620" type="line"/>
      <point x="246" y="267" type="line"/>
    </contour>
  </outline>
</glyph>
<glyph name="Ccedilla" format="1">
  <advance width="443"/>
  <unicode hex="00C7"/>
  <outline>
    <contour>
      <point x="415" y="693" type="curve"/>
      <point x="355" y="570" type="line"/>
      <point x="338" y="604"/>
      <point x="317" y="619"/>
      <point x="280" y="619" type="curve" smooth="yes"/>
      <point x="203" y="619"/>
      <point x="175" y="472"/>
      <point x="175" y="365" type="curve" smooth="yes"/>
      <point x="175" y="258"/>
      <point x="203" y="109"/>
      <point x="280" y="109" type="curve" smooth="yes"/>
      <point x="309" y="109"/>
      <point x="339" y="128"/>
      <point x="354" y="156" type="curve"/>
      <point x="413" y="41" type="line"/>
      <point x="386" y="10"/>
      <point x="339" y="-11"/>
      <point x="284" y="-12" type="curve"/>
      <point x="270" y="-32" type="line"/>
      <point x="324" y="-29"/>
      <point x="350" y="-58"/>
      <point x="350" y="-95" type="curve" smooth="yes"/>
      <point x="350" y="-149"/>
      <point x="302" y="-179"/>
      <point x="250" y="-179" type="curve" smooth="yes"/>
      <point x="213" y="-179"/>
      <point x="178" y="-169"/>
      <point x="151" y="-147" type="curve"/>
      <point x="183" y="-107" type="line"/>
      <point x="205" y="-122"/>
      <point x="225" y="-127"/>
      <point x="247" y="-127" type="curve" smooth="yes"/>
      <point x="266" y="-127"/>
      <point x="279" y="-122"/>
      <point x="279" y="-101" type="curve" smooth="yes"/>
      <point x="279" y="-86"/>
      <point x="267" y="-79"/>
      <point x="248" y="-79" type="curve" smooth="yes"/>
      <point x="237" y="-79"/>
      <point x="221" y="-80"/>
      <point x="210" y="-84" type="curve"/>
      <point x="189" y="-53" type="line"/>
      <point x="224" y="-4" type="line"/>
      <point x="91" y="35"/>
      <point x="30" y="211"/>
      <point x="30" y="365" type="curve" smooth="yes"/>
      <point x="30" y="539"/>
      <point x="108" y="742"/>
      <point x="280" y="742" type="curve" smooth="yes"/>
      <point x="342" y="742"/>
      <point x="381" y="725"/>
    </contour>
  </outline>
</glyph>
<glyph name="Eth" format="1">
  <advance width="503"/>
  <unicode hex="00D0"/>
  <outline>
    <contour>
      <point x="473" y="365" type="curve" smooth="yes"/>
      <point x="473" y="191"/>
      <point x="394" y="0"/>
      <point x="222" y="0" type="curve" smooth="yes"/>
      <point x="65" y="0" type="line"/>
      <point x="65" y="296" type="line"/>
      <point x="25" y="296" type="line"/>
      <point x="25" y="414" type="line"/>
      <point x="65" y="414" type="line"/>
      <point x="65" y="730" type="line"/>
      <point x="222" y="730" type="line" smooth="yes"/>
      <point x="394" y="730"/>
      <point x="473" y="539"/>
    </contour>
    <contour>
      <point x="328" y="365" type="curve" smooth="yes"/>
      <point x="328" y="472"/>
      <point x="307" y="607"/>
      <point x="222" y="607" type="curve" smooth="yes"/>
      <point x="202" y="607" type="line"/>
      <point x="202" y="414" type="line"/>
      <point x="260" y="414" type="line"/>
      <point x="260" y="296" type="line"/>
      <point x="202" y="296" type="line"/>
      <point x="202" y="123" type="line"/>
      <point x="222" y="123" type="line" smooth="yes"/>
      <point x="307" y="123"/>
      <point x="328" y="258"/>
    </contour>
  </outline>
</glyph>
<glyph name="Odieresis" format="1">
  <advance width="541"/>
  <unicode hex="00D6"/>
  <outline>
    <contour>
      <point x="531" y="600" type="line"/>
      <point x="465" y="600" type="line"/>
      <point x="497" y="530"/>
      <point x="511" y="445"/>
      <point x="511" y="365" type="curve" smooth="yes"/>
      <point x="511" y="191"/>
      <point x="442" y="-12"/>
      <point x="270" y="-12" type="curve" smooth="yes"/>
      <point x="98" y="-12"/>
      <point x="30" y="191"/>
      <point x="30" y="365" type="curve" smooth="yes"/>
      <point x="30" y="445"/>
      <point x="44" y="530"/>
      <point x="76" y="600" type="curve"/>
      <point x="10" y="600" type="line"/>
      <point x="10" y="730" type="line"/>
      <point x="114" y="730" type="line"/>
      <point x="114" y="663" type="line"/>
      <point x="152" y="711"/>
      <point x="203" y="742"/>
      <point x="270" y="742" type="curve" smooth="yes"/>
      <point x="337" y="742"/>
      <point x="389" y="711"/>
      <point x="427" y="662" type="curve"/>
      <point x="427" y="730" type="line"/>
      <point x="531" y="730" type="line"/>
    </contour>
    <contour>
      <point x="366" y="365" type="curve" smooth="yes"/>
      <point x="366" y="472"/>
      <point x="347" y="619"/>
      <point x="270" y="619" type="curve" smooth="yes"/>
      <point x="193" y="619"/>
      <point x="175" y="472"/>
      <point x="175" y="365" type="curve" smooth="yes"/>
      <point x="175" y="258"/>
      <point x="193" y="111"/>
      <point x="270" y="111" type="curve" smooth="yes"/>
      <point x="347" y="111"/>
      <point x="366" y="258"/>
    </contour>
  </outline>
</glyph>
<glyph name="multiply" format="1">
  <advance width="342"/>
  <unicode hex="00D7"/>
  <outline>
    <contour>
      <point x="105" y="116" type="curve"/>
      <point x="14" y="172" type="line"/>
      <point x="108" y="331" type="line"/>
      <point x="16" y="492" type="line"/>
      <point x="108" y="551" type="line"/>
      <point x="171" y="438" type="line"/>
      <point x="236" y="550" type="line"/>
      <point x="328" y="492" type="line"/>
      <point x="233" y="331" type="line"/>
      <point x="326" y="172" type="line"/>
      <point x="234" y="116" type="line"/>
      <point x="170" y="224" type="line"/>
      <point x="170" y="225"/>
      <point x="105" y="116"/>
    </contour>
  </outline>
</glyph>
<glyph name="Oslash" format="1">
  <advance width="541"/>
  <unicode hex="00D8"/>
  <outline>
    <contour>
      <point x="520" y="698" type="line"/>
      <point x="461" y="606" type="line"/>
      <point x="496" y="536"/>
      <point x="511" y="447"/>
      <point x="511" y="365" type="curve" smooth="yes"/>
      <point x="511" y="191"/>
      <point x="442" y="-12"/>
      <point x="270" y="-12" type="curve" smooth="yes"/>
      <point x="203" y="-12"/>
      <point x="152" y="19"/>
      <point x="114" y="67" type="curve"/>
      <point x="70" y="-2" type="line"/>
      <point x="21" y="34" type="line"/>
      <point x="79" y="124" type="line"/>
      <point x="45" y="195"/>
      <point x="30" y="283"/>
      <point x="30" y="365" type="curve" smooth="yes"/>
      <point x="30" y="539"/>
      <point x="98" y="742"/>
      <point x="270" y="742" type="curve" smooth="yes"/>
      <point x="337" y="742"/>
      <point x="388" y="712"/>
      <point x="425" y="664" type="curve"/>
      <point x="469" y="732" type="line"/>
    </contour>
    <contour>
      <point x="345" y="538" type="line"/>
      <point x="330" y="585"/>
      <point x="307" y="619"/>
      <point x="270" y="619" type="curve" smooth="yes"/>
      <point x="193" y="619"/>
      <point x="175" y="472"/>
      <point x="175" y="365" type="curve" smooth="yes"/>
      <point x="175" y="338"/>
      <point x="176" y="309"/>
      <point x="179" y="280" type="curve"/>
    </contour>
    <contour>
      <point x="366" y="365" type="curve" smooth="yes"/>
      <point x="366" y="392"/>
      <point x="365" y="422"/>
      <point x="362" y="452" type="curve"/>
      <point x="195" y="193" type="line"/>
      <point x="209" y="145"/>
      <point x="233" y="111"/>
      <point x="270" y="111" type="curve" smooth="yes"/>
      <point x="347" y="111"/>
      <point x="366" y="258"/>
    </contour>
  </outline>
</glyph>
<glyph name="Udieresis" format="1">
  <advance width="494"/>
  <unicode hex="00DC"/>
  <outline>
    <contour>
      <point x="449" y="629" type="line"/>
      <point x="309" y="629" type="line"/>
      <point x="309" y="730" type="line"/>
      <point x="449" y="730" type="line"/>
    </contour>
    <contour>
      <point x="185" y="629" type="line"/>
      <point x="45" y="629" type="line"/>
      <point x="45" y="730" type="line"/>
      <point x="185" y="730" type="line"/>
    </contour>
    <contour>
      <point x="449" y="234" type="line" smooth="yes"/>
      <point x="449" y="95"/>
      <point x="385" y="-12"/>
      <point x="247" y="-12" type="curve" smooth="yes"/>
      <point x="109" y="-12"/>
      <point x="45" y="95"/>
      <point x="45" y="234" type="curve" smooth="yes"/>
      <point x="45" y="597" type="line"/>
      <point x="185" y="597" type="line"/>
      <point x="185" y="234" type="line" smooth="yes"/>
      <point x="185" y="148"/>
      <point x="202" y="111"/>
      <point x="247" y="111" type="curve" smooth="yes"/>
      <point x="292" y="111"/>
      <point x="309" y="148"/>
      <point x="309" y="234" type="curve" smooth="yes"/>
      <point x="309" y="597" type="line"/>
      <point x="449" y="597" type="line"/>
    </contour>
  </outline>
</glyph>
<glyph name="Thorn" format="1">
  <advance width="433"/>
  <unicode hex="00DE"/>
  <outline>
    <contour>
      <point x="413" y="383" type="curve" smooth="yes"/>
      <point x="413" y="219"/>
      <point x="313" y="144"/>
      <point x="190" y="144" type="curve"/>
      <point x="190" y="0" type="line"/>
      <point x="50" y="0" type="line"/>
      <point x="50" y="730" type="line"/>
      <point x="190" y="730" type="line"/>
      <point x="190" y="611" type="line"/>
      <point x="295" y="611"/>
      <point x="413" y="554"/>
    </contour>
    <contour>
      <point x="268" y="383" type="curve" smooth="yes"/>
      <point x="268" y="456"/>
      <point x="246" y="493"/>
      <point x="190" y="493" type="curve"/>
      <point x="190" y="265" type="line"/>
      <point x="246" y="265"/>
      <point x="268" y="310"/>
    </contour>
  </outline>
</glyph>
<glyph name="germandbls" format="1">
  <advance width="410"/>
  <unicode hex="00DF"/>
  <outline>
    <contour>
      <point x="385" y="208" type="curve" smooth="yes"/>
      <point x="385" y="76"/>
      <point x="332" y="0"/>
      <point x="192" y="0" type="curve"/>
      <point x="192" y="108" type="line"/>
      <point x="222" y="108"/>
      <point x="260" y="119"/>
      <point x="260" y="208" type="curve" smooth="yes"/>
      <point x="260" y="309"/>
      <point x="237" y="358"/>
      <point x="192" y="386" type="curve"/>
      <point x="192" y="456" type="line"/>
      <point x="231" y="474"/>
      <point x="239" y="504"/>
      <point x="239" y="564" type="curve" smooth="yes"/>
      <point x="239" y="617"/>
      <point x="226" y="634"/>
      <point x="200" y="634" type="curve" smooth="yes"/>
      <point x="172" y="634"/>
      <point x="160" y="612"/>
      <point x="160" y="563" type="curve" smooth="yes"/>
      <point x="160" y="0" type="line"/>
      <point x="35" y="0" type="line"/>
      <point x="35" y="552" type="line" smooth="yes"/>
      <point x="35" y="671"/>
      <point x="93" y="742"/>
      <point x="203" y="742" type="curve" smooth="yes"/>
      <point x="313" y="742"/>
      <point x="364" y="663"/>
      <point x="364" y="569" type="curve" smooth="yes"/>
      <point x="364" y="498"/>
      <point x="345" y="458"/>
      <point x="309" y="422" type="curve"/>
      <point x="355" y="376"/>
      <point x="385" y="315"/>
    </contour>
  </outline>
</glyph>
<glyph name="ae" format="1">
  <advance width="549"/>
  <unicode hex="00E6"/>
  <outline>
    <contour>
      <point x="524" y="203" type="curve" smooth="yes"/>
      <point x="524" y="194"/>
      <point x="524" y="186"/>
      <point x="523" y="177" type="curve"/>
      <point x="328" y="177" type="line"/>
      <point x="330" y="115"/>
      <point x="355" y="90"/>
      <point x="382" y="90" type="curve" smooth="yes"/>
      <point x="412" y="90"/>
      <point x="433" y="109"/>
      <point x="449" y="136" type="curve"/>
      <point x="520" y="72" type="line"/>
      <point x="488" y="19"/>
      <point x="443" y="-12"/>
      <point x="376" y="-12" type="curve" smooth="yes"/>
      <point x="322" y="-12"/>
      <point x="282" y="23"/>
      <point x="262" y="61" type="curve"/>
      <point x="241" y="25"/>
      <point x="204" y="-12"/>
      <point x="138" y="-12" type="curve" smooth="yes"/>
      <point x="70" y="-12"/>
      <point x="17" y="33"/>
      <point x="17" y="125" type="curve" smooth="yes"/>
      <point x="17" y="225"/>
      <point x="128" y="276"/>
      <point x="211" y="276" type="curve"/>
      <point x="211" y="311"/>
      <point x="211" y="341"/>
      <point x="174" y="341" type="curve" smooth="yes"/>
      <point x="138" y="341"/>
      <point x="105" y="330"/>
      <point x="84" y="315" type="curve"/>
      <point x="51" y="388" type="line"/>
      <point x="83" y="413"/>
      <point x="139" y="428"/>
      <point x="183" y="428" type="curve" smooth="yes"/>
      <point x="228" y="428"/>
      <point x="271" y="406"/>
      <point x="283" y="381" type="curve"/>
      <point x="298" y="404"/>
      <point x="333" y="428"/>
      <point x="371" y="428" type="curve" smooth="yes"/>
      <point x="489" y="428"/>
      <point x="524" y="314"/>
    </contour>
    <contour>
      <point x="413" y="250" type="line"/>
      <point x="413" y="292"/>
      <point x="403" y="335"/>
      <point x="371" y="335" type="curve" smooth="yes"/>
      <point x="339" y="335"/>
      <point x="330" y="292"/>
      <point x="328" y="250" type="curve"/>
    </contour>
    <contour>
      <point x="211" y="119" type="curve" smooth="yes"/>
      <point x="211" y="203" type="line"/>
      <point x="179" y="203"/>
      <point x="139" y="184"/>
      <point x="139" y="130" type="curve" smooth="yes"/>
      <point x="139" y="105"/>
      <point x="152" y="88"/>
      <point x="179" y="88" type="curve" smooth="yes"/>
      <point x="192" y="88"/>
      <point x="211" y="105"/>
    </contour>
  </outline>
</glyph>
<glyph name="ccedilla" format="1">
  <advance width="345"/>
  <unicode hex="00E7"/>
  <outline>
    <contour>
      <point x="328" y="78" type="line"/>
      <point x="304" y="33"/>
      <point x="266" y="-1"/>
      <point x="216" y="-10" type="curve"/>
      <point x="200" y="-32" type="line"/>
      <point x="254" y="-29"/>
      <point x="280" y="-58"/>
      <point x="280" y="-95" type="curve" smooth="yes"/>
      <point x="280" y="-149"/>
      <point x="232" y="-179"/>
      <point x="180" y="-179" type="curve" smooth="yes"/>
      <point x="143" y="-179"/>
      <point x="108" y="-169"/>
      <point x="81" y="-147" type="curve"/>
      <point x="113" y="-107" type="line"/>
      <point x="135" y="-122"/>
      <point x="155" y="-127"/>
      <point x="177" y="-127" type="curve" smooth="yes"/>
      <point x="196" y="-127"/>
      <point x="209" y="-122"/>
      <point x="209" y="-101" type="curve" smooth="yes"/>
      <point x="209" y="-86"/>
      <point x="197" y="-79"/>
      <point x="178" y="-79" type="curve" smooth="yes"/>
      <point x="167" y="-79"/>
      <point x="151" y="-80"/>
      <point x="140" y="-84" type="curve"/>
      <point x="119" y="-53" type="line"/>
      <point x="152" y="-7" type="line"/>
      <point x="66" y="14"/>
      <point x="20" y="110"/>
      <point x="20" y="208" type="curve" smooth="yes"/>
      <point x="20" y="319"/>
      <point x="79" y="428"/>
      <point x="189" y="428" type="curve" smooth="yes"/>
      <point x="254" y="428"/>
      <point x="300" y="391"/>
      <point x="328" y="337" type="curve"/>
      <point x="243" y="268" type="line"/>
      <point x="233" y="305"/>
      <point x="217" y="320"/>
      <point x="189" y="320" type="curve" smooth="yes"/>
      <point x="159" y="320"/>
      <point x="145" y="284"/>
      <point x="145" y="208" type="curve" smooth="yes"/>
      <point x="145" y="132"/>
      <point x="159" y="96"/>
      <point x="189" y="96" type="curve" smooth="yes"/>
      <point x="216" y="96"/>
      <point x="235" y="118"/>
      <point x="243" y="154" type="curve"/>
    </contour>
  </outline>
</glyph>
<glyph name="eth" format="1">
  <advance width="383"/>
  <unicode hex="00F0"/>
  <outline>
    <contour>
      <point x="370" y="616" type="line"/>
      <point x="301" y="588" type="line"/>
      <point x="345" y="502"/>
      <point x="358" y="400"/>
      <point x="358" y="247" type="curve" smooth="yes"/>
      <point x="358" y="83"/>
      <point x="299" y="-12"/>
      <point x="189" y="-12" type="curve" smooth="yes"/>
      <point x="79" y="-12"/>
      <point x="20" y="97"/>
      <point x="20" y="208" type="curve" smooth="yes"/>
      <point x="20" y="319"/>
      <point x="80" y="428"/>
      <point x="164" y="428" type="curve" smooth="yes"/>
      <point x="201" y="428"/>
      <point x="219" y="414"/>
      <point x="238" y="389" type="curve"/>
      <point x="238" y="438"/>
      <point x="224" y="494"/>
      <point x="198" y="547" type="curve"/>
      <point x="113" y="513" type="line"/>
      <point x="72" y="594" type="line"/>
      <point x="149" y="625" type="line"/>
      <point x="132" y="647"/>
      <point x="113" y="667"/>
      <point x="91" y="683" type="curve"/>
      <point x="162" y="749" type="line"/>
      <point x="197" y="720"/>
      <point x="225" y="693"/>
      <point x="249" y="665" type="curve"/>
      <point x="330" y="697" type="line"/>
    </contour>
    <contour>
      <point x="233" y="208" type="curve" smooth="yes"/>
      <point x="233" y="284"/>
      <point x="219" y="320"/>
      <point x="189" y="320" type="curve" smooth="yes"/>
      <point x="159" y="320"/>
      <point x="145" y="284"/>
      <point x="145" y="208" type="curve" smooth="yes"/>
      <point x="145" y="132"/>
      <point x="159" y="96"/>
      <point x="189" y="96" type="curve" smooth="yes"/>
      <point x="219" y="96"/>
      <point x="233" y="132"/>
    </contour>
  </outline>
</glyph>
<glyph name="oslash" format="1">
  <advance width="378"/>
  <unicode hex="00F8"/>
  <outline>
    <contour>
      <point x="371" y="394" type="line"/>
      <point x="326" y="340" type="line"/>
      <point x="347" y="302"/>
      <point x="358" y="255"/>
      <point x="358" y="208" type="curve" smooth="yes"/>
      <point x="358" y="97"/>
      <point x="299" y="-12"/>
      <point x="189" y="-12" type="curve" smooth="yes"/>
      <point x="142" y="-12"/>
      <point x="105" y="7"/>
      <point x="77" y="38" type="curve"/>
      <point x="42" y="-4" type="line"/>
      <point x="10" y="25" type="line"/>
      <point x="51" y="75" type="line"/>
      <point x="31" y="114"/>
      <point x="20" y="161"/>
      <point x="20" y="208" type="curve" smooth="yes"/>
      <point x="20" y="319"/>
      <point x="79" y="428"/>
      <point x="189" y="428" type="curve" smooth="yes"/>
      <point x="236" y="428"/>
      <point x="273" y="408"/>
      <point x="301" y="377" type="curve"/>
      <point x="337" y="421" type="line"/>
    </contour>
    <contour>
      <point x="231" y="292" type="line"/>
      <point x="222" y="315"/>
      <point x="208" y="326"/>
      <point x="189" y="326" type="curve" smooth="yes"/>
      <point x="153" y="326"/>
      <point x="136" y="288"/>
      <point x="136" y="208" type="curve" smooth="yes"/>
      <point x="136" y="198"/>
      <point x="136" y="188"/>
      <point x="137" y="179" type="curve"/>
    </contour>
    <contour>
      <point x="242" y="208" type="curve" smooth="yes"/>
      <point x="242" y="218"/>
      <point x="242" y="228"/>
      <point x="241" y="237" type="curve"/>
      <point x="147" y="123" type="line"/>
      <point x="156" y="101"/>
      <point x="170" y="90"/>
      <point x="189" y="90" type="curve" smooth="yes"/>
      <point x="225" y="90"/>
      <point x="242" y="128"/>
    </contour>
  </outline>
</glyph>
<glyph name="thorn" format="1">
  <advance width="377"/>
  <unicode hex="00FE"/>
  <outline>
    <contour>
      <point x="357" y="208" type="curve" smooth="yes"/>
      <point x="357" y="97"/>
      <point x="316" y="-12"/>
      <point x="228" y="-12" type="curve" smooth="yes"/>
      <point x="196" y="-12"/>
      <point x="174" y="7"/>
      <point x="160" y="32" type="curve"/>
      <point x="160" y="-179" type="line"/>
      <point x="35" y="-179" type="line"/>
      <point x="35" y="730" type="line"/>
      <point x="160" y="730" type="line"/>
      <point x="160" y="384" type="line"/>
      <point x="174" y="409"/>
      <point x="196" y="428"/>
      <point x="228" y="428" type="curve" smooth="yes"/>
      <point x="316" y="428"/>
      <point x="357" y="319"/>
    </contour>
    <contour>
      <point x="236" y="208" type="curve" smooth="yes"/>
      <point x="236" y="284"/>
      <point x="222" y="320"/>
      <point x="192" y="320" type="curve" smooth="yes"/>
      <point x="162" y="320"/>
      <point x="148" y="284"/>
      <point x="148" y="208" type="curve" smooth="yes"/>
      <point x="148" y="132"/>
      <point x="162" y="96"/>
      <point x="192" y="96" type="curve" smooth="yes"/>
      <point x="222" y="96"/>
      <point x="236" y="132"/>
    </contour>
  </outline>
</glyph>
<glyph name="Lslash" format="1">
  <advance width="406"/>
  <unicode hex="0141"/>
  <outline>
    <contour>
      <point x="383" y="0" type="line"/>
      <point x="70" y="0" type="line"/>
      <point x="70" y="287" type="line"/>
      <point x="39" y="274" type="line"/>
      <point x="-6" y="372" type="line"/>
      <point x="70" y="403" type="line"/>
      <point x="70" y="730" type="line"/>
      <point x="210" y="730" type="line"/>
      <point x="210" y="461" type="line"/>
      <point x="301" y="498" type="line"/>
      <point x="345" y="400" type="line"/>
      <point x="210" y="344" type="line"/>
      <point x="210" y="119" type="line"/>
      <point x="383" y="119" type="line"/>
    </contour>
  </outline>
</glyph>
<glyph name="lslash" format="1">
  <advance width="265"/>
  <unicode hex="0142"/>
  <outline>
    <contour>
      <point x="271" y="370" type="line"/>
      <point x="195" y="338" type="line"/>
      <point x="195" y="0" type="line"/>
      <point x="70" y="0" type="line"/>
      <point x="70" y="287" type="line"/>
      <point x="39" y="274" type="line"/>
      <point x="-6" y="372" type="line"/>
      <point x="70" y="403" type="line"/>
      <point x="70" y="730" type="line"/>
      <point x="195" y="730" type="line"/>
      <point x="195" y="455" type="line"/>
      <point x="227" y="468" type="line"/>
    </contour>
  </outline>
</glyph>
<glyph name="OE" format="1">
  <advance width="725"/>
  <unicode hex="0152"/>
  <outline>
    <contour>
      <point x="687" y="0" type="line"/>
      <point x="386" y="0" type="line"/>
      <point x="386" y="52" type="line"/>
      <point x="365" y="19"/>
      <point x="313" y="-12"/>
      <point x="260" y="-12" type="curve" smooth="yes"/>
      <point x="103" y="-12"/>
      <point x="30" y="191"/>
      <point x="30" y="365" type="curve" smooth="yes"/>
      <point x="30" y="539"/>
      <point x="103" y="742"/>
      <point x="260" y="742" type="curve" smooth="yes"/>
      <point x="317" y="742"/>
      <point x="365" y="711"/>
      <point x="386" y="678" type="curve"/>
      <point x="386" y="730" type="line"/>
      <point x="684" y="730" type="line"/>
      <point x="684" y="611" type="line"/>
      <point x="506" y="611" type="line"/>
      <point x="506" y="428" type="line"/>
      <point x="671" y="428" type="line"/>
      <point x="671" y="309" type="line"/>
      <point x="506" y="309" type="line"/>
      <point x="506" y="119" type="line"/>
      <point x="687" y="119" type="line"/>
    </contour>
    <contour>
      <point x="366" y="365" type="curve" smooth="yes"/>
      <point x="366" y="472"/>
      <point x="347" y="619"/>
      <point x="270" y="619" type="curve" smooth="yes"/>
      <point x="193" y="619"/>
      <point x="175" y="472"/>
      <point x="175" y="365" type="curve" smooth="yes"/>
      <point x="175" y="258"/>
      <point x="193" y="111"/>
      <point x="270" y="111" type="curve" smooth="yes"/>
      <point x="347" y="111"/>
      <point x="366" y="258"/>
    </contour>
  </outline>
</glyph>
<glyph name="oe" format="1">
  <advance width="575"/>
  <unicode hex="0153"/>
  <outline>
    <contour>
      <point x="550" y="203" type="curve" smooth="yes"/>
      <point x="550" y="194"/>
      <point x="550" y="186"/>
      <point x="549" y="177" type="curve"/>
      <point x="354" y="177" type="line"/>
      <point x="356" y="115"/>
      <point x="381" y="90"/>
      <point x="408" y="90" type="curve" smooth="yes"/>
      <point x="438" y="90"/>
      <point x="459" y="109"/>
      <point x="475" y="136" type="curve"/>
      <point x="546" y="72" type="line"/>
      <point x="514" y="19"/>
      <point x="469" y="-12"/>
      <point x="402" y="-12" type="curve" smooth="yes"/>
      <point x="349" y="-12"/>
      <point x="315" y="14"/>
      <point x="294" y="44" type="curve"/>
      <point x="275" y="14"/>
      <point x="237" y="-12"/>
      <point x="189" y="-12" type="curve" smooth="yes"/>
      <point x="79" y="-12"/>
      <point x="20" y="97"/>
      <point x="20" y="208" type="curve" smooth="yes"/>
      <point x="20" y="319"/>
      <point x="79" y="428"/>
      <point x="189" y="428" type="curve" smooth="yes"/>
      <point x="237" y="428"/>
      <point x="275" y="403"/>
      <point x="294" y="373" type="curve"/>
      <point x="315" y="403"/>
      <point x="349" y="428"/>
      <point x="397" y="428" type="curve" smooth="yes"/>
      <point x="515" y="428"/>
      <point x="550" y="314"/>
    </contour>
    <contour>
      <point x="439" y="250" type="line"/>
      <point x="439" y="292"/>
      <point x="429" y="335"/>
      <point x="397" y="335" type="curve" smooth="yes"/>
      <point x="365" y="335"/>
      <point x="356" y="292"/>
      <point x="354" y="250" type="curve"/>
    </contour>
    <contour>
      <point x="233" y="208" type="curve" smooth="yes"/>
      <point x="233" y="284"/>
      <point x="219" y="320"/>
      <point x="189" y="320" type="curve" smooth="yes"/>
      <point x="159" y="320"/>
      <point x="145" y="284"/>
      <point x="145" y="208" type="curve" smooth="yes"/>
      <point x="145" y="132"/>
      <point x="159" y="96"/>
      <point x="189" y="96" type="curve" smooth="yes"/>
      <point x="219" y="96"/>
      <point x="233" y="132"/>
    </contour>
  </outline>
</glyph>
<glyph name="florin" format="1">
  <advance width="303"/>
  <unicode hex="0192"/>
  <outline>
    <contour>
      <point x="282" y="725" type="curve"/>
      <point x="273" y="618" type="line"/>
      <point x="267" y="620"/>
      <point x="262" y="620"/>
      <point x="255" y="620" type="curve" smooth="yes"/>
      <point x="230" y="620"/>
      <point x="223" y="599"/>
      <point x="221" y="573" type="curve" smooth="yes"/>
      <point x="207" y="416" type="line"/>
      <point x="266" y="416" type="line"/>
      <point x="257" y="311" type="line"/>
      <point x="198" y="311" type="line"/>
      <point x="166" y="-51" type="line" smooth="yes"/>
      <point x="159" y="-125"/>
      <point x="124" y="-179"/>
      <point x="24" y="-179" type="curve" smooth="yes"/>
      <point x="7" y="-179"/>
      <point x="-9" y="-177"/>
      <point x="-17" y="-174" type="curve"/>
      <point x="-8" y="-67" type="line"/>
      <point x="-2" y="-69"/>
      <point x="3" y="-69"/>
      <point x="10" y="-69" type="curve" smooth="yes"/>
      <point x="35" y="-69"/>
      <point x="42" y="-48"/>
      <point x="44" y="-22" type="curve" smooth="yes"/>
      <point x="73" y="311" type="line"/>
      <point x="24" y="311" type="line"/>
      <point x="33" y="416" type="line"/>
      <point x="82" y="416" type="line"/>
      <point x="99" y="602" type="line" smooth="yes"/>
      <point x="106" y="676"/>
      <point x="141" y="730"/>
      <point x="241" y="730" type="curve" smooth="yes"/>
      <point x="258" y="730"/>
      <point x="274" y="728"/>
    </contour>
  </outline>
</glyph>
<glyph name="circumflex" format="1">
  <advance width="400"/>
  <unicode hex="02C6"/>
  <outline>
    <contour>
      <point x="327" y="475" type="line"/>
      <point x="234" y="475" type="line"/>
      <point x="199" y="550" type="line"/>
      <point x="164" y="475" type="line"/>
      <point x="73" y="475" type="line"/>
      <point x="156" y="622" type="line"/>
      <point x="244" y="622" type="line"/>
    </contour>
  </outline>
</glyph>
<glyph name="caron" format="1">
  <advance width="400"/>
  <unicode hex="02C7"/>
  <outline>
    <contour>
      <point x="325" y="622" type="line"/>
      <point x="242" y="475" type="line"/>
      <point x="154" y="475" type="line"/>
      <point x="71" y="622" type="line"/>
      <point x="164" y="622" type="line"/>
      <point x="199" y="547" type="line"/>
      <point x="234" y="622" type="line"/>
    </contour>
  </outline>
</glyph>
<glyph name="breve" format="1">
  <advance width="400"/>
  <unicode hex="02D8"/>
  <outline>
    <contour>
      <point x="348" y="617" type="line"/>
      <point x="340" y="521"/>
      <point x="281" y="470"/>
      <point x="200" y="470" type="curve" smooth="yes"/>
      <point x="119" y="470"/>
      <point x="60" y="521"/>
      <point x="52" y="617" type="curve"/>
      <point x="127" y="617" type="line"/>
      <point x="134" y="586"/>
      <point x="154" y="544"/>
      <point x="200" y="544" type="curve" smooth="yes"/>
      <point x="246" y="544"/>
      <point x="267" y="588"/>
      <point x="273" y="617" type="curve"/>
    </contour>
  </outline>
</glyph>
<glyph name="dotaccent" format="1">
  <advance width="400"/>
  <unicode hex="02D9"/>
  <outline>
    <contour>
      <point x="262" y="475" type="line"/>
      <point x="136" y="475" type="line"/>
      <point x="136" y="605" type="line"/>
      <point x="262" y="605" type="line"/>
    </contour>
  </outline>
</glyph>
<glyph name="ring" format="1">
  <advance width="400"/>
  <unicode hex="02DA"/>
  <outline>
    <contour>
      <point x="310" y="576" type="curve" smooth="yes"/>
      <point x="310" y="517"/>
      <point x="259" y="466"/>
      <point x="200" y="466" type="curve" smooth="yes"/>
      <point x="141" y="466"/>
      <point x="90" y="517"/>
      <point x="90" y="576" type="curve" smooth="yes"/>
      <point x="90" y="635"/>
      <point x="141" y="686"/>
      <point x="200" y="686" type="curve" smooth="yes"/>
      <point x="259" y="686"/>
      <point x="310" y="635"/>
    </contour>
    <contour>
      <point x="246" y="576" type="curve" smooth="yes"/>
      <point x="246" y="601"/>
      <point x="225" y="622"/>
      <point x="200" y="622" type="curve" smooth="yes"/>
      <point x="175" y="622"/>
      <point x="154" y="601"/>
      <point x="154" y="576" type="curve" smooth="yes"/>
      <point x="154" y="551"/>
      <point x="175" y="530"/>
      <point x="200" y="530" type="curve" smooth="yes"/>
      <point x="225" y="530"/>
      <point x="246" y="551"/>
    </contour>
  </outline>
</glyph>
<glyph name="ogonek" format="1">
  <advance width="400"/>
  <unicode hex="02DB"/>
  <outline>
    <contour>
      <point x="289" y="-149" type="line"/>
      <point x="262" y="-171"/>
      <point x="231" y="-181"/>
      <point x="190" y="-181" type="curve" smooth="yes"/>
      <point x="135" y="-181"/>
      <point x="75" y="-152"/>
      <point x="75" y="-98" type="curve" smooth="yes"/>
      <point x="75" y="-61"/>
      <point x="106" y="-23"/>
      <point x="176" y="12" type="curve"/>
      <point x="242" y="12" type="line"/>
      <point x="176" y="-34"/>
      <point x="157" y="-66"/>
      <point x="157" y="-94" type="curve" smooth="yes"/>
      <point x="157" y="-123"/>
      <point x="176" y="-133"/>
      <point x="195" y="-133" type="curve" smooth="yes"/>
      <point x="221" y="-133"/>
      <point x="238" y="-128"/>
      <point x="262" y="-112" type="curve"/>
    </contour>
  </outline>
</glyph>
<glyph name="tilde" format="1">
  <advance width="400"/>
  <unicode hex="02DC"/>
  <outline>
    <contour>
      <point x="340" y="592" type="line"/>
      <point x="336" y="525"/>
      <point x="319" y="473"/>
      <point x="252" y="473" type="curve" smooth="yes"/>
      <point x="229" y="473"/>
      <point x="211" y="484"/>
      <point x="197" y="494" type="curve" smooth="yes"/>
      <point x="182" y="505"/>
      <point x="170" y="516"/>
      <point x="159" y="516" type="curve" smooth="yes"/>
      <point x="140" y="516"/>
      <point x="131" y="502"/>
      <point x="128" y="475" type="curve"/>
      <point x="60" y="475" type="line"/>
      <point x="64" y="542"/>
      <point x="80" y="594"/>
      <point x="148" y="594" type="curve" smooth="yes"/>
      <point x="170" y="594"/>
      <point x="188" y="583"/>
      <point x="203" y="573" type="curve" smooth="yes"/>
      <point x="218" y="562"/>
      <point x="230" y="551"/>
      <point x="241" y="551" type="curve" smooth="yes"/>
      <point x="260" y="551"/>
      <point x="269" y="565"/>
      <point x="272" y="592" type="curve"/>
    </contour>
  </outline>
</glyph>
<glyph name="hungarumlaut" format="1">
  <advance width="400"/>
  <unicode hex="02DD"/>
  <outline>
    <contour>
      <point x="392" y="642" type="line"/>
      <point x="299" y="475" type="line"/>
      <point x="176" y="475" type="line"/>
      <point x="269" y="642" type="line"/>
    </contour>
    <contour>
      <point x="224" y="642" type="line"/>
      <point x="131" y="475" type="line"/>
      <point x="8" y="475" type="line"/>
      <point x="101" y="642" type="line"/>
    </contour>
  </outline>
</glyph>
<glyph name="endash" format="1">
  <advance width="380"/>
  <unicode hex="2013"/>
  <outline>
    <contour>
      <point x="345" y="183" type="line"/>
      <point x="35" y="183" type="line"/>
      <point x="35" y="293" type="line"/>
      <point x="345" y="293" type="line"/>
    </contour>
  </outline>
</glyph>
<glyph name="emdash" format="1">
  <advance width="560"/>
  <unicode hex="2014"/>
  <outline>
    <contour>
      <point x="525" y="183" type="line"/>
      <point x="35" y="183" type="line"/>
      <point x="35" y="293" type="line"/>
      <point x="525" y="293" type="line"/>
    </contour>
  </outline>
</glyph>
<glyph name="quoteleft" format="1">
  <advance width="204"/>
  <unicode hex="2018"/>
  <unicode hex="02BB"/>
  <outline>
    <contour>
      <point x="188" y="730" type="line"/>
      <point x="169" y="701"/>
      <point x="157" y="654"/>
      <point x="157" y="592" type="curve" smooth="yes"/>
      <point x="157" y="481" type="line"/>
      <point x="34" y="481" type="line"/>
      <point x="34" y="562" type="line" smooth="yes"/>
      <point x="34" y="642"/>
      <point x="74" y="704"/>
      <point x="106" y="730" type="curve"/>
    </contour>
  </outline>
</glyph>
<glyph name="quoteright" format="1">
  <advance width="204"/>
  <unicode hex="2019"/>
  <unicode hex="02BC"/>
  <outline>
    <contour>
      <point x="170" y="649" type="line" smooth="yes"/>
      <point x="170" y="569"/>
      <point x="130" y="507"/>
      <point x="98" y="481" type="curve"/>
      <point x="16" y="481" type="line"/>
      <point x="35" y="510"/>
      <point x="47" y="557"/>
      <point x="47" y="619" type="curve" smooth="yes"/>
      <point x="47" y="730" type="line"/>
      <point x="170" y="730" type="line"/>
    </contour>
  </outline>
</glyph>
<glyph name="quotesinglbase" format="1">
  <advance width="204"/>
  <unicode hex="201A"/>
  <outline>
    <contour>
      <point x="170" y="60" type="line" smooth="yes"/>
      <point x="170" y="-20"/>
      <point x="130" y="-82"/>
      <point x="98" y="-108" type="curve"/>
      <point x="16" y="-108" type="line"/>
      <point x="35" y="-79"/>
      <point x="47" y="-32"/>
      <point x="47" y="30" type="curve" smooth="yes"/>
      <point x="47" y="141" type="line"/>
      <point x="170" y="141" type="line"/>
    </contour>
  </outline>
</glyph>
<glyph name="quotedblleft" format="1">
  <advance width="388"/>
  <unicode hex="201C"/>
  <outline>
    <contour>
      <point x="372" y="730" type="line"/>
      <point x="353" y="701"/>
      <point x="341" y="654"/>
      <point x="341" y="592" type="curve" smooth="yes"/>
      <point x="341" y="481" type="line"/>
      <point x="218" y="481" type="line"/>
      <point x="218" y="562" type="line" smooth="yes"/>
      <point x="218" y="642"/>
      <point x="258" y="704"/>
      <point x="290" y="730" type="curve"/>
    </contour>
    <contour>
      <point x="188" y="730" type="line"/>
      <point x="169" y="701"/>
      <point x="157" y="654"/>
      <point x="157" y="592" type="curve" smooth="yes"/>
      <point x="157" y="481" type="line"/>
      <point x="34" y="481" type="line"/>
      <point x="34" y="562" type="line" smooth="yes"/>
      <point x="34" y="642"/>
      <point x="74" y="704"/>
      <point x="106" y="730" type="curve"/>
    </contour>
  </outline>
</glyph>
<glyph name="quotedblright" format="1">
  <advance width="388"/>
  <unicode hex="201D"/>
  <outline>
    <contour>
      <point x="354" y="649" type="line" smooth="yes"/>
      <point x="354" y="569"/>
      <point x="314" y="507"/>
      <point x="282" y="481" type="curve"/>
      <point x="200" y="481" type="line"/>
      <point x="219" y="510"/>
      <point x="231" y="557"/>
      <point x="231" y="619" type="curve" smooth="yes"/>
      <point x="231" y="730" type="line"/>
      <point x="354" y="730" type="line"/>
    </contour>
    <contour>
      <point x="170" y="649" type="line" smooth="yes"/>
      <point x="170" y="569"/>
      <point x="130" y="507"/>
      <point x="98" y="481" type="curve"/>
      <point x="16" y="481" type="line"/>
      <point x="35" y="510"/>
      <point x="47" y="557"/>
      <point x="47" y="619" type="curve" smooth="yes"/>
      <point x="47" y="730" type="line"/>
      <point x="170" y="730" type="line"/>
    </contour>
  </outline>
</glyph>
<glyph name="quotedblbase" format="1">
  <advance width="388"/>
  <unicode hex="201E"/>
  <outline>
    <contour>
      <point x="354" y="60" type="line" smooth="yes"/>
      <point x="354" y="-20"/>
      <point x="314" y="-82"/>
      <point x="282" y="-108" type="curve"/>
      <point x="200" y="-108" type="line"/>
      <point x="219" y="-79"/>
      <point x="231" y="-32"/>
      <point x="231" y="30" type="curve" smooth="yes"/>
      <point x="231" y="141" type="line"/>
      <point x="354" y="141" type="line"/>
    </contour>
    <contour>
      <point x="170" y="60" type="line" smooth="yes"/>
      <point x="170" y="-20"/>
      <point x="130" y="-82"/>
      <point x="98" y="-108" type="curve"/>
      <point x="16" y="-108" type="line"/>
      <point x="35" y="-79"/>
      <point x="47" y="-32"/>
      <point x="47" y="30" type="curve" smooth="yes"/>
      <point x="47" y="141" type="line"/>
      <point x="170" y="141" type="line"/>
    </contour>
  </outline>
</glyph>
<glyph name="dagger" format="1">
  <advance width="495"/>
  <unicode hex="2020"/>
  <outline>
    <contour>
      <point x="475" y="343" type="line"/>
      <point x="312" y="343" type="line"/>
      <point x="312" y="-179" type="line"/>
      <point x="183" y="-179" type="line"/>
      <point x="183" y="343" type="line"/>
      <point x="20" y="343" type="line"/>
      <point x="20" y="465" type="line"/>
      <point x="183" y="465" type="line"/>
      <point x="183" y="730" type="line"/>
      <point x="312" y="730" type="line"/>
      <point x="312" y="465" type="line"/>
      <point x="475" y="465" type="line"/>
    </contour>
  </outline>
</glyph>
<glyph name="daggerdbl" format="1">
  <advance width="495"/>
  <unicode hex="2021"/>
  <outline>
    <contour>
      <point x="475" y="77" type="line"/>
      <point x="312" y="77" type="line"/>
      <point x="312" y="-179" type="line"/>
      <point x="183" y="-179" type="line"/>
      <point x="183" y="77" type="line"/>
      <point x="20" y="77" type="line"/>
      <point x="20" y="199" type="line"/>
      <point x="183" y="199" type="line"/>
      <point x="183" y="343" type="line"/>
      <point x="20" y="343" type="line"/>
      <point x="20" y="465" type="line"/>
      <point x="183" y="465" type="line"/>
      <point x="183" y="730" type="line"/>
      <point x="312" y="730" type="line"/>
      <point x="312" y="465" type="line"/>
      <point x="475" y="465" type="line"/>
      <point x="475" y="343" type="line"/>
      <point x="312" y="343" type="line"/>
      <point x="312" y="199" type="line"/>
      <point x="475" y="199" type="line"/>
    </contour>
  </outline>
</glyph>
<glyph name="ellipsis" format="1">
  <advance width="639"/>
  <unicode hex="2026"/>
  <outline>
    <contour>
      <point x="599" y="0" type="line"/>
      <point x="466" y="0" type="line"/>
      <point x="466" y="141" type="line"/>
      <point x="599" y="141" type="line"/>
    </contour>
    <contour>
      <point x="386" y="0" type="line"/>
      <point x="253" y="0" type="line"/>
      <point x="253" y="141" type="line"/>
      <point x="386" y="141" type="line"/>
    </contour>
    <contour>
      <point x="173" y="0" type="line"/>
      <point x="40" y="0" type="line"/>
      <point x="40" y="141" type="line"/>
      <point x="173" y="141" type="line"/>
    </contour>
  </outline>
</glyph>
<glyph name="perthousand" format="1">
  <advance width="985"/>
  <unicode hex="2030"/>
  <outline>
    <contour>
      <point x="301" y="556" type="curve" smooth="yes"/>
      <point x="301" y="448"/>
      <point x="251" y="365"/>
      <point x="162" y="365" type="curve" smooth="yes"/>
      <point x="91" y="365"/>
      <point x="27" y="427"/>
      <point x="27" y="553" type="curve" smooth="yes"/>
      <point x="27" y="660"/>
      <point x="77" y="742"/>
      <point x="165" y="742" type="curve" smooth="yes"/>
      <point x="256" y="742"/>
      <point x="301" y="657"/>
    </contour>
    <contour>
      <point x="625" y="730" type="line"/>
      <point x="186" y="0" type="line"/>
      <point x="60" y="0" type="line"/>
      <point x="499" y="730" type="line"/>
    </contour>
    <contour>
      <point x="965" y="179" type="curve" smooth="yes"/>
      <point x="965" y="71"/>
      <point x="915" y="-12"/>
      <point x="826" y="-12" type="curve" smooth="yes"/>
      <point x="755" y="-12"/>
      <point x="691" y="50"/>
      <point x="691" y="176" type="curve" smooth="yes"/>
      <point x="691" y="283"/>
      <point x="741" y="365"/>
      <point x="829" y="365" type="curve" smooth="yes"/>
      <point x="920" y="365"/>
      <point x="965" y="280"/>
    </contour>
    <contour>
      <point x="660" y="179" type="curve" smooth="yes"/>
      <point x="660" y="71"/>
      <point x="610" y="-12"/>
      <point x="521" y="-12" type="curve" smooth="yes"/>
      <point x="450" y="-12"/>
      <point x="386" y="50"/>
      <point x="386" y="176" type="curve" smooth="yes"/>
      <point x="386" y="283"/>
      <point x="436" y="365"/>
      <point x="524" y="365" type="curve" smooth="yes"/>
      <point x="615" y="365"/>
      <point x="660" y="280"/>
    </contour>
    <contour>
      <point x="205" y="553" type="curve" smooth="yes"/>
      <point x="205" y="602"/>
      <point x="194" y="654"/>
      <point x="164" y="654" type="curve" smooth="yes"/>
      <point x="134" y="654"/>
      <point x="122" y="605"/>
      <point x="122" y="553" type="curve" smooth="yes"/>
      <point x="122" y="502"/>
      <point x="132" y="453"/>
      <point x="162" y="453" type="curve" smooth="yes"/>
      <point x="195" y="453"/>
      <point x="205" y="503"/>
    </contour>
    <contour>
      <point x="869" y="176" type="curve" smooth="yes"/>
      <point x="869" y="225"/>
      <point x="858" y="277"/>
      <point x="828" y="277" type="curve" smooth="yes"/>
      <point x="798" y="277"/>
      <point x="786" y="228"/>
      <point x="786" y="176" type="curve" smooth="yes"/>
      <point x="786" y="125"/>
      <point x="796" y="76"/>
      <point x="826" y="76" type="curve" smooth="yes"/>
      <point x="859" y="76"/>
      <point x="869" y="126"/>
    </contour>
    <contour>
      <point x="564" y="176" type="curve" smooth="yes"/>
      <point x="564" y="225"/>
      <point x="553" y="277"/>
      <point x="523" y="277" type="curve" smooth="yes"/>
      <point x="493" y="277"/>
      <point x="481" y="228"/>
      <point x="481" y="176" type="curve" smooth="yes"/>
      <point x="481" y="125"/>
      <point x="491" y="76"/>
      <point x="521" y="76" type="curve" smooth="yes"/>
      <point x="554" y="76"/>
      <point x="564" y="126"/>
    </contour>
  </outline>
</glyph>
<glyph name="guilsinglleft" format="1">
  <advance width="172"/>
  <unicode hex="2039"/>
  <outline>
    <contour>
      <point x="142" y="43" type="line"/>
      <point x="30" y="147" type="line"/>
      <point x="30" y="293" type="line"/>
      <point x="142" y="397" type="line"/>
      <point x="142" y="268" type="line"/>
      <point x="77" y="220" type="line"/>
      <point x="142" y="172" type="line"/>
    </contour>
  </outline>
</glyph>
<glyph name="guilsinglright" format="1">
  <advance width="172"/>
  <unicode hex="203A"/>
  <outline>
    <contour>
      <point x="142" y="147" type="line"/>
      <point x="30" y="43" type="line"/>
      <point x="30" y="172" type="line"/>
      <point x="95" y="220" type="line"/>
      <point x="30" y="268" type="line"/>
      <point x="30" y="397" type="line"/>
      <point x="142" y="293" type="line"/>
    </contour>
  </outline>
</glyph>
<glyph name="fraction" format="1">
  <advance width="342"/>
  <unicode hex="2044"/>
  <outline>
    <contour>
      <point x="395" y="730" type="line"/>
      <point x="72" y="0" type="line"/>
      <point x="-53" y="0" type="line"/>
      <point x="270" y="730" type="line"/>
    </contour>
  </outline>
</glyph>
<glyph name="Euro" format="1">
  <advance width="435"/>
  <unicode hex="20AC"/>
  <outline>
    <contour>
      <point x="214" y="394" type="line"/>
      <point x="213" y="374"/>
      <point x="213" y="357"/>
      <point x="214" y="337" type="curve"/>
      <point x="331" y="337" type="line"/>
      <point x="331" y="281" type="line"/>
      <point x="217" y="281" type="line"/>
      <point x="225" y="193"/>
      <point x="248" y="107"/>
      <point x="302" y="107" type="curve" smooth="yes"/>
      <point x="331" y="107"/>
      <point x="352" y="126"/>
      <point x="368" y="152" type="curve"/>
      <point x="428" y="41" type="line"/>
      <point x="397" y="8"/>
      <point x="354" y="-12"/>
      <point x="295" y="-12" type="curve" smooth="yes"/>
      <point x="153" y="-12"/>
      <point x="93" y="132"/>
      <point x="77" y="281" type="curve"/>
      <point x="12" y="281" type="line"/>
      <point x="12" y="337" type="line"/>
      <point x="74" y="337" type="line"/>
      <point x="73" y="356"/>
      <point x="72" y="375"/>
      <point x="74" y="394" type="curve"/>
      <point x="12" y="394" type="line"/>
      <point x="12" y="450" type="line"/>
      <point x="78" y="450" type="line"/>
      <point x="97" y="599"/>
      <point x="165" y="742"/>
      <point x="302" y="742" type="curve" smooth="yes"/>
      <point x="357" y="742"/>
      <point x="396" y="723"/>
      <point x="429" y="692" type="curve"/>
      <point x="370" y="580" type="line"/>
      <point x="355" y="606"/>
      <point x="332" y="621"/>
      <point x="305" y="621" type="curve" smooth="yes"/>
      <point x="252" y="621"/>
      <point x="228" y="537"/>
      <point x="218" y="450" type="curve"/>
      <point x="331" y="450" type="line"/>
      <point x="331" y="394" type="line"/>
    </contour>
  </outline>
</glyph>
<glyph name="minus" format="1">
  <advance width="406"/>
  <unicode hex="2212"/>
  <outline>
    <contour>
      <point x="24" y="244" type="line"/>
      <point x="24" y="364" type="line"/>
      <point x="382" y="364" type="line"/>
      <point x="382" y="244" type="line"/>
    </contour>
  </outline>
</glyph>
<glyph name="radical" format="1">
  <advance width="461"/>
  <unicode hex="221A"/>
  <outline>
    <contour>
      <point x="451" y="730" type="line"/>
      <point x="274" y="0" type="line"/>
      <point x="147" y="0" type="line"/>
      <point x="10" y="374" type="line"/>
      <point x="146" y="374" type="line"/>
      <point x="194" y="217" type="line" smooth="yes"/>
      <point x="198" y="204"/>
      <point x="205" y="174"/>
      <point x="205" y="174" type="curve"/>
      <point x="205" y="174"/>
      <point x="209" y="203"/>
      <point x="212" y="218" type="curve" smooth="yes"/>
      <point x="320" y="730" type="line"/>
    </contour>
  </outline>
</glyph>
<glyph name="f_f_i" format="1">
  <advance width="675"/>
  <unicode hex="FB03"/>
  <outline>
    <contour>
      <point x="640" y="484" type="line"/>
      <point x="515" y="484" type="line"/>
      <point x="515" y="617" type="line"/>
      <point x="640" y="617" type="line"/>
    </contour>
    <contour>
      <point x="464" y="311" type="line"/>
      <point x="415" y="311" type="line"/>
      <point x="415" y="0" type="line"/>
      <point x="290" y="0" type="line"/>
      <point x="290" y="311" type="line"/>
      <point x="188" y="311" type="line"/>
      <point x="188" y="0" type="line"/>
      <point x="63" y="0" type="line"/>
      <point x="63" y="311" type="line"/>
      <point x="14" y="311" type="line"/>
      <point x="14" y="416" type="line"/>
      <point x="63" y="416" type="line"/>
      <point x="63" y="602" type="line" smooth="yes"/>
      <point x="63" y="676"/>
      <point x="94" y="730"/>
      <point x="194" y="730" type="curve" smooth="yes"/>
      <point x="211" y="730"/>
      <point x="227" y="728"/>
      <point x="236" y="725" type="curve"/>
      <point x="236" y="618" type="line"/>
      <point x="230" y="620"/>
      <point x="225" y="620"/>
      <point x="218" y="620" type="curve" smooth="yes"/>
      <point x="193" y="620"/>
      <point x="188" y="599"/>
      <point x="188" y="573" type="curve" smooth="yes"/>
      <point x="188" y="416" type="line"/>
      <point x="290" y="416" type="line"/>
      <point x="290" y="602" type="line" smooth="yes"/>
      <point x="290" y="676"/>
      <point x="321" y="730"/>
      <point x="421" y="730" type="curve" smooth="yes"/>
      <point x="438" y="730"/>
      <point x="454" y="728"/>
      <point x="463" y="725" type="curve"/>
      <point x="463" y="618" type="line"/>
      <point x="457" y="620"/>
      <point x="452" y="620"/>
      <point x="445" y="620" type="curve" smooth="yes"/>
      <point x="420" y="620"/>
      <point x="415" y="599"/>
      <point x="415" y="573" type="curve" smooth="yes"/>
      <point x="415" y="416" type="line"/>
      <point x="464" y="416" type="line"/>
    </contour>
    <contour>
      <point x="640" y="0" type="line"/>
      <point x="515" y="0" type="line"/>
      <point x="515" y="416" type="line"/>
      <point x="640" y="416" type="line"/>
    </contour>
  </outline>
</glyph>
<glyph name="bullet" format="1">
  <advance width="373"/>
  <outline>
    <contour>
      <point x="353" y="380" type="curve" smooth="yes"/>
      <point x="353" y="287"/>
      <point x="278" y="212"/>
      <point x="186" y="212" type="curve" smooth="yes"/>
      <point x="95" y="212"/>
      <point x="20" y="287"/>
      <point x="20" y="380" type="curve" smooth="yes"/>
      <point x="20" y="470"/>
      <point x="95" y="545"/>
      <point x="186" y="545" type="curve" smooth="yes"/>
      <point x="278" y="545"/>
      <point x="353" y="470"/>
    </contour>
  </outline>
</glyph>
<glyph name="onesuperior" format="1">
  <advance width="210"/>
  <outline>
    <contour>
      <point x="165" y="279" type="line"/>
      <point x="57" y="279" type="line"/>
      <point x="57" y="598" type="line"/>
      <point x="49" y="589"/>
      <point x="24" y="579"/>
      <point x="13" y="577" type="curve"/>
      <point x="13" y="670" type="line"/>
      <point x="37" y="675"/>
      <point x="71" y="698"/>
      <point x="78" y="729" type="curve"/>
      <point x="165" y="729" type="line"/>
    </contour>
  </outline>
</glyph>
<glyph name="threesuperior" format="1">
  <advance width="313"/>
  <outline>
    <contour>
      <point x="279" y="423" type="curve" smooth="yes"/>
      <point x="279" y="328"/>
      <point x="225" y="264"/>
      <point x="140" y="264" type="curve" smooth="yes"/>
      <point x="75" y="264"/>
      <point x="40" y="308"/>
      <point x="22" y="343" type="curve"/>
      <point x="102" y="405" type="line"/>
      <point x="111" y="384"/>
      <point x="122" y="370"/>
      <point x="141" y="370" type="curve" smooth="yes"/>
      <point x="165" y="370"/>
      <point x="172" y="393"/>
      <point x="172" y="426" type="curve" smooth="yes"/>
      <point x="172" y="454"/>
      <point x="162" y="472"/>
      <point x="131" y="472" type="curve" smooth="yes"/>
      <point x="116" y="472" type="line"/>
      <point x="116" y="549" type="line"/>
      <point x="125" y="549" type="line" smooth="yes"/>
      <point x="157" y="549"/>
      <point x="168" y="565"/>
      <point x="168" y="598" type="curve" smooth="yes"/>
      <point x="168" y="615"/>
      <point x="164" y="636"/>
      <point x="144" y="636" type="curve" smooth="yes"/>
      <point x="124" y="636"/>
      <point x="119" y="610"/>
      <point x="119" y="590" type="curve"/>
      <point x="27" y="633" type="line"/>
      <point x="35" y="685"/>
      <point x="75" y="741"/>
      <point x="147" y="741" type="curve" smooth="yes"/>
      <point x="233" y="741"/>
      <point x="273" y="672"/>
      <point x="273" y="604" type="curve" smooth="yes"/>
      <point x="273" y="570"/>
      <point x="249" y="530"/>
      <point x="220" y="517" type="curve"/>
      <point x="250" y="505"/>
      <point x="279" y="470"/>
    </contour>
  </outline>
</glyph>
